<?xml version="1.0" encoding="UTF-8"?>
<svg width="16px" height="16px" viewBox="0 0 16 16" version="1.1" xmlns="http://www.w3.org/2000/svg" xmlns:xlink="http://www.w3.org/1999/xlink">
    <!-- Generator: Sketch 51.3 (57544) - http://www.bohemiancoding.com/sketch -->
    <title>facebook</title>
    <desc>Created with Sketch.</desc>
    <defs></defs>
    <g id="blog" stroke="none" stroke-width="1" fill="none" fill-rule="evenodd">
        <g id="生命科学" transform="translate(-1042.000000, -2530.000000)" fill="#656D7A" fill-rule="nonzero">
            <g id="FOOTER-Copy-2" transform="translate(-232.000000, 2230.000000)">
                <g id="Bottom-Bar" transform="translate(0.000000, 300.000000)">
                    <g id="Social-Icons" transform="translate(1274.000000, 0.000000)">
                        <g id="facebook">
                            <path d="M15.2840791,0 L0.699271592,0 C0.299687825,0 0,0.3 0,0.7 L0,15.4 C0,15.7 0.299687825,16 0.699271592,16 L7.99167534,16 L7.99167534,11 L5.9937565,11 L5.9937565,8 L7.99167534,8 L7.99167534,6 C7.99167534,3.9 9.19042664,3 10.9885536,3 C11.8876171,3 12.7866805,3 12.9864724,3 L12.9864724,6 L11.987513,6 C11.3881374,6 10.9885536,6.4 10.9885536,7 L10.9885536,8 L13.5858481,8 L12.9864724,11 L10.9885536,11 L10.9885536,16 L15.2840791,16 C15.6836629,16 15.9833507,15.7 15.9833507,15.3 L15.9833507,0.7 C15.9833507,0.3 15.6836629,0 15.2840791,0 Z" id="Shape"></path>
                        </g>
                    </g>
                </g>
            </g>
        </g>
    </g>
</svg>