<?xml version="1.0" encoding="UTF-8"?>
<svg width="19px" height="16px" viewBox="0 0 19 16" version="1.1" xmlns="http://www.w3.org/2000/svg" xmlns:xlink="http://www.w3.org/1999/xlink">
    <!-- Generator: Sketch 51.3 (57544) - http://www.bohemiancoding.com/sketch -->
    <title>Shape</title>
    <desc>Created with Sketch.</desc>
    <defs></defs>
    <g id="product-pages" stroke="none" stroke-width="1" fill="none" fill-rule="evenodd">
        <g id="product-page" transform="translate(-1199.000000, -2162.000000)" fill="#000000">
            <g id="wechat-copy-2" transform="translate(1199.000000, 2162.000000)">
                <path d="M17.0224167,14.2042667 C18.2289167,13.2932083 19,11.9468206 19,10.4495517 C19,7.70730702 16.437375,5.48366485 13.2770417,5.48366485 C10.1167083,5.48366485 7.55408333,7.70730702 7.55408333,10.4495517 C7.55408333,13.1926208 10.1167083,15.416263 13.2770417,15.416263 C13.9301667,15.416263 14.5603333,15.319798 15.145375,15.1441822 L15.3132083,15.1177986 C15.42325,15.1177986 15.523,15.1532516 15.6172083,15.2093167 L16.8704167,15.9628981 L16.9804583,16 C17.08575,16 17.17125,15.9109554 17.17125,15.8012986 L17.140375,15.6561888 L16.8822917,14.6544368 L16.8625,14.5274657 C16.8625,14.3938988 16.9258333,14.2759971 17.0224167,14.2042667 Z M6.86770833,5.12604262e-15 C3.07483333,5.12604262e-15 0,2.66804081 0,5.96021849 C0,7.75595177 0.924666667,9.37277131 2.372625,10.4652169 C2.489,10.5509636 2.565,10.6927754 2.565,10.8535504 L2.54125,11.0052561 L2.23170833,12.2073585 L2.1945,12.3813254 C2.1945,12.5132433 2.29741667,12.6204267 2.42329167,12.6204267 L2.55629167,12.5759044 L4.05966667,11.6714418 C4.17208333,11.6038339 4.291625,11.561785 4.42383333,11.561785 L4.62570833,11.5931155 C5.327125,11.8033598 6.08395833,11.920437 6.86770833,11.920437 L7.24454167,11.9105431 C7.09570833,11.4455323 7.01416667,10.9557869 7.01416667,10.4503762 C7.01416667,7.44841802 9.81825,5.01453159 13.2770417,5.01453159 L13.6499167,5.02442544 C13.1329583,2.17747089 10.29325,0 6.86770833,0 Z M11.369125,9.65557044 C10.9479583,9.65557044 10.60675,9.29939194 10.60675,8.86076471 C10.60675,8.421313 10.9479583,8.06595898 11.369125,8.06595898 C11.7910833,8.06595898 12.1322917,8.421313 12.1322917,8.86076471 C12.1322917,9.29939194 11.7910833,9.65557044 11.369125,9.65557044 Z M15.1849583,9.65557044 C14.763,9.65557044 14.4217917,9.29939194 14.4217917,8.86076471 C14.4217917,8.421313 14.763,8.06595898 15.1849583,8.06595898 C15.606125,8.06595898 15.9473333,8.421313 15.9473333,8.86076471 C15.9473333,9.29939194 15.606125,9.65557044 15.1849583,9.65557044 Z M4.57820833,5.00628672 C4.07233333,5.00628672 3.66304167,4.57920231 3.66304167,4.05317943 C3.66304167,3.52633206 4.07233333,3.09924766 4.57820833,3.09924766 C5.08408333,3.09924766 5.49416667,3.52633206 5.49416667,4.05317943 C5.49416667,4.57920231 5.08408333,5.00628672 4.57820833,5.00628672 Z M9.15641667,5.00628672 C8.65054167,5.00628672 8.24125,4.57920231 8.24125,4.05317943 C8.24125,3.52633206 8.65054167,3.09924766 9.15641667,3.09924766 C9.66229167,3.09924766 10.072375,3.52633206 10.072375,4.05317943 C10.072375,4.57920231 9.66229167,5.00628672 9.15641667,5.00628672 Z" id="Shape"></path>
            </g>
        </g>
    </g>
</svg>