<?xml version="1.0" encoding="UTF-8"?>
<svg width="68px" height="79px" viewBox="0 0 68 79" version="1.1" xmlns="http://www.w3.org/2000/svg" xmlns:xlink="http://www.w3.org/1999/xlink">
    <!-- Generator: Sketch 51.3 (57544) - http://www.bohemiancoding.com/sketch -->
    <title>Group 11</title>
    <desc>Created with Sketch.</desc>
    <defs></defs>
    <g id="home" stroke="none" stroke-width="1" fill="none" fill-rule="evenodd">
        <g id="Group-11" fill="#AD2031">
            <path d="M45.4067,10.6373 L45.8347,10.6433 C46.0387,10.6463 46.1787,10.6173 46.2547,10.5563 C46.3297,10.4963 46.3677,10.4143 46.3697,10.3123 C46.3707,10.2473 46.3537,10.1883 46.3187,10.1363 C46.2827,10.0833 46.2337,10.0443 46.1707,10.0173 C46.1077,9.9913 45.9897,9.9763 45.8177,9.9743 L45.4177,9.9683 L45.4067,10.6373 Z M45.0367,11.8793 L45.0687,9.6623 L45.8197,9.6743 C46.0757,9.6773 46.2607,9.7003 46.3757,9.7433 C46.4897,9.7863 46.5797,9.8593 46.6457,9.9623 C46.7137,10.0643 46.7457,10.1733 46.7437,10.2883 C46.7417,10.4503 46.6817,10.5903 46.5667,10.7083 C46.4517,10.8273 46.2997,10.8923 46.1107,10.9043 C46.1867,10.9383 46.2487,10.9783 46.2947,11.0243 C46.3817,11.1133 46.4867,11.2613 46.6107,11.4693 L46.8707,11.9063 L46.4397,11.9003 L46.2527,11.5483 C46.1037,11.2713 45.9837,11.0973 45.8907,11.0263 C45.8277,10.9743 45.7337,10.9483 45.6097,10.9463 L45.4027,10.9433 L45.3887,11.8853 L45.0367,11.8793 Z M45.9687,9.0343 C45.6837,9.0303 45.4047,9.1003 45.1337,9.2443 C44.8617,9.3883 44.6467,9.5973 44.4907,9.8713 C44.3347,10.1453 44.2547,10.4303 44.2497,10.7293 C44.2457,11.0263 44.3157,11.3113 44.4617,11.5863 C44.6067,11.8603 44.8127,12.0753 45.0797,12.2313 C45.3457,12.3873 45.6267,12.4673 45.9187,12.4713 C46.2107,12.4763 46.4917,12.4043 46.7627,12.2563 C47.0347,12.1083 47.2457,11.8993 47.3987,11.6293 C47.5527,11.3593 47.6307,11.0753 47.6347,10.7793 C47.6387,10.4803 47.5677,10.1923 47.4207,9.9143 C47.2727,9.6363 47.0647,9.4213 46.7967,9.2683 C46.5277,9.1163 46.2527,9.0383 45.9687,9.0343 Z M45.9737,8.6933 C46.3137,8.6983 46.6457,8.7913 46.9677,8.9733 C47.2897,9.1563 47.5387,9.4133 47.7147,9.7463 C47.8897,10.0793 47.9757,10.4263 47.9707,10.7843 C47.9657,11.1383 47.8717,11.4793 47.6877,11.8043 C47.5057,12.1293 47.2517,12.3793 46.9277,12.5563 C46.6017,12.7323 46.2637,12.8183 45.9137,12.8133 C45.5617,12.8073 45.2267,12.7123 44.9077,12.5263 C44.5887,12.3413 44.3417,12.0823 44.1677,11.7523 C43.9927,11.4223 43.9087,11.0793 43.9137,10.7243 C43.9187,10.3663 44.0147,10.0223 44.2017,9.6953 C44.3877,9.3673 44.6447,9.1173 44.9717,8.9443 C45.2997,8.7713 45.6337,8.6883 45.9737,8.6933 Z" id="Fill-1"></path>
            <path d="M10.8598,9.1553 L15.0778,9.1193 L13.1288,16.6623 C12.7198,18.2463 12.2708,19.4523 11.7818,20.2813 C11.2928,21.1103 10.5568,21.8153 9.5758,22.3963 C8.5938,22.9783 7.4528,23.2733 6.1518,23.2843 C4.7778,23.2973 3.7608,23.1163 3.1028,22.7443 C2.4458,22.3713 2.0058,21.8223 1.7818,21.0973 C1.5568,20.3713 1.5468,19.4723 1.7508,18.3993 L5.9188,17.8063 C5.7658,18.4193 5.7018,18.8733 5.7238,19.1683 C5.7458,19.4643 5.8508,19.7033 6.0398,19.8843 C6.1698,20.0023 6.3818,20.0603 6.6798,20.0583 C7.1508,20.0533 7.5428,19.8733 7.8538,19.5143 C8.1668,19.1563 8.4308,18.5543 8.6498,17.7093 L10.8598,9.1553 Z" id="Fill-3"></path>
            <path d="M20.3042,14.9698 C20.7902,14.7298 21.1842,14.4708 21.4872,14.1918 C21.7892,13.9138 21.9732,13.6508 22.0362,13.4038 C22.1042,13.1468 22.0632,12.9288 21.9152,12.7528 C21.7682,12.5758 21.5252,12.4898 21.1862,12.4928 C20.8522,12.4958 20.5552,12.5958 20.2942,12.7958 C20.0342,12.9948 19.8682,13.2288 19.7992,13.4968 C19.7112,13.8368 19.8792,14.3278 20.3042,14.9698 M18.3782,17.9068 C17.8432,18.2338 17.4722,18.5128 17.2652,18.7448 C17.0572,18.9758 16.9202,19.2208 16.8542,19.4788 C16.7502,19.8788 16.8272,20.2338 17.0862,20.5438 C17.3442,20.8528 17.7442,21.0058 18.2872,21.0008 C18.8732,20.9958 19.5932,20.7568 20.4452,20.2848 C19.8872,19.7428 19.1982,18.9498 18.3782,17.9068 M23.5332,17.0508 L25.9492,17.6128 C25.6892,18.0958 25.4602,18.4838 25.2612,18.7748 C25.0632,19.0668 24.7992,19.4108 24.4712,19.8068 L25.4832,20.6598 C25.6082,20.7578 25.7712,20.8738 25.9722,21.0088 L23.6702,23.0958 C23.3932,22.9228 23.1112,22.7228 22.8232,22.4958 C22.5352,22.2688 22.2762,22.0738 22.0442,21.9118 C21.3742,22.3008 20.7332,22.5848 20.1172,22.7648 C19.2642,23.0128 18.3352,23.1418 17.3292,23.1508 C15.7542,23.1638 14.6682,22.8398 14.0722,22.1778 C13.4752,21.5148 13.3012,20.7068 13.5472,19.7528 C13.7252,19.0678 14.1172,18.4178 14.7272,17.8028 C15.3372,17.1878 16.2102,16.6648 17.3462,16.2338 C17.0532,15.7058 16.8772,15.2468 16.8172,14.8558 C16.7572,14.4648 16.7792,14.0668 16.8842,13.6618 C17.1052,12.8058 17.6072,12.0988 18.3902,11.5398 C19.1722,10.9808 20.2152,10.6958 21.5162,10.6848 C22.8452,10.6728 23.7522,10.9278 24.2412,11.4488 C24.7292,11.9698 24.8772,12.5978 24.6882,13.3318 C24.5812,13.7428 24.3842,14.1378 24.0952,14.5188 C23.8072,14.8988 23.4972,15.2078 23.1672,15.4458 C22.8372,15.6838 22.2662,16.0388 21.4512,16.5108 C21.8752,17.0928 22.3342,17.6328 22.8272,18.1318 C23.0822,17.7898 23.3182,17.4298 23.5332,17.0508" id="Fill-5"></path>
            <polygon id="Fill-7" points="29.9262 8.9922 34.1342 8.9562 32.7792 14.2032 38.5432 8.9192 44.1412 8.8702 37.8172 14.1542 40.7772 22.7532 35.5942 22.7972 34.1972 17.1122 31.4222 19.4522 30.5472 22.8402 26.3382 22.8762"></polygon>
            <path d="M66.9819,0.0064 C66.2339,-0.2536 63.8649,7.4514 55.9199,17.2324 C55.5389,17.7024 55.2809,18.0054 55.1579,18.1564 C44.7739,32.0194 29.9339,40.4844 28.0039,41.2704 C25.9909,42.0874 25.6389,43.1114 27.2939,43.8274 C39.6349,48.9774 39.3099,60.2524 37.1779,65.9714 C35.9139,69.6604 32.4239,70.5164 30.2569,70.7194 C27.7469,70.9604 28.1659,69.6014 28.1659,69.6014 C29.3139,66.9434 29.0839,63.7514 28.9989,62.9274 C28.9869,62.8074 29.0559,62.6964 29.1689,62.6534 C29.8439,62.3944 32.0729,61.5154 32.4109,61.0754 C33.0249,60.2744 33.2229,53.9124 28.1989,51.0934 C19.4759,46.1964 13.9749,52.7384 12.9939,54.0484 C12.9029,54.1684 12.7309,54.1904 12.6129,54.0974 C5.2229,48.2944 7.3789,38.2784 7.4479,37.9694 C7.4489,37.9634 7.4499,37.9594 7.4509,37.9534 C7.7559,35.7114 8.7399,33.4124 9.2759,32.2824 C9.3869,32.0494 9.1369,31.8064 8.9099,31.9284 C8.0259,32.4024 7.1449,32.9964 6.3099,33.7414 C1.1339,38.3614 1.2109,45.6644 1.3409,47.8764 C1.3529,48.0694 1.1629,48.2064 0.9799,48.1404 C0.8379,48.0884 0.6639,48.0084 0.4679,47.8864 C0.2979,47.7814 0.0729,47.8884 0.0569,48.0874 C-0.2651,52.1454 0.8669,56.2614 1.2819,57.6054 C1.3439,57.8064 1.1639,57.9984 0.9599,57.9444 C0.8199,57.9074 0.6549,57.8604 0.4719,57.8054 C0.2949,57.7524 0.1149,57.8894 0.1239,58.0734 C0.3189,62.2184 1.8239,64.9624 2.5699,66.0814 C2.7069,66.2874 2.5169,66.5514 2.2779,66.4884 C2.1439,66.4544 2.0179,66.4164 1.8809,66.3684 C1.6819,66.2984 1.4809,66.4764 1.5299,66.6824 C2.1009,69.0984 4.3119,71.1664 5.4089,72.0684 C5.6079,72.2324 5.4839,72.5574 5.2259,72.5424 C5.2199,72.5424 5.2129,72.5414 5.2079,72.5414 C4.9819,72.5274 4.8359,72.7784 4.9679,72.9624 C5.9329,74.2984 8.1879,76.0834 10.1769,76.8324 C15.9459,79.0894 20.3339,77.6874 20.9079,77.4844 C20.9549,77.4684 21.0009,77.4654 21.0479,77.4754 C21.9639,77.6614 26.5989,78.9444 31.2759,78.2164 C48.0849,75.6114 52.6139,63.3314 53.1169,61.8204 C53.6259,60.3134 53.2119,60.2944 52.7159,60.9294 C52.0449,61.7794 50.9569,62.2814 50.1249,62.5594 C49.8519,62.6504 49.6469,62.3024 49.8589,62.1094 C53.9719,58.3664 56.2829,52.3584 56.6909,50.8574 C57.2769,48.6994 56.2419,49.6234 55.9069,49.9904 C54.5019,51.5264 52.9999,52.5204 51.9819,53.0874 C51.7229,53.2314 51.4559,52.9044 51.6479,52.6794 C55.3719,48.3244 57.0959,44.0994 57.6549,41.7004 C58.3029,38.9534 57.1519,40.2654 57.1519,40.2654 C55.7999,42.2034 54.3019,43.4094 53.2329,44.1014 C52.9719,44.2704 52.6829,43.9304 52.8889,43.6984 C60.3169,35.3474 61.6739,25.7404 61.9039,24.5484 C62.3559,22.1484 60.8819,24.3144 60.1419,25.4174 C58.4999,27.8554 56.3849,29.8164 54.9769,30.9814 C54.7349,31.1814 54.4069,30.8734 54.5899,30.6184 C58.4259,25.3224 62.3399,18.5274 65.0459,10.1584 C66.8059,4.7164 67.5409,0.2004 66.9819,0.0064 M19.4549,74.0984 C18.4819,74.4864 12.6359,67.2034 13.5019,61.9424 C13.5019,61.9424 16.8919,63.5174 18.9849,63.6764 C18.9849,63.6764 19.9279,67.9454 23.6779,71.0434 C23.6779,71.0434 22.1839,73.0044 19.4549,74.0984 M26.0879,60.7984 C24.9469,61.1024 22.4309,61.1724 21.9069,59.6954 C21.9049,59.6934 24.5579,55.4044 27.8189,58.9534 C27.8189,58.9534 28.5259,60.1414 26.0879,60.7984" id="Fill-9"></path>
        </g>
    </g>
</svg>