<?xml version="1.0" encoding="UTF-8"?>
<svg width="36px" height="34px" viewBox="0 0 36 34" version="1.1" xmlns="http://www.w3.org/2000/svg" xmlns:xlink="http://www.w3.org/1999/xlink">
    <!-- Generator: Sketch 51.3 (57544) - http://www.bohemiancoding.com/sketch -->
    <title>browser</title>
    <desc>Created with Sketch.</desc>
    <defs></defs>
    <g id="home" stroke="none" stroke-width="1" fill="none" fill-rule="evenodd">
        <g id="home-mobile" transform="translate(-54.000000, -2564.000000)" fill="#666666" fill-rule="nonzero">
            <g id="Group" transform="translate(27.000000, 2564.000000)">
                <g id="browser" transform="translate(27.000000, 0.000000)">
                    <path d="M29.8055556,34 L6.19444444,34 C4.43305556,34 3,32.5067759 3,30.6712716 L3,13.1578186 C3,12.5184133 3.49743056,12 4.11111111,12 C4.72479167,12 5.22222222,12.5184133 5.22222222,13.1578186 L5.22222222,30.6712716 C5.22222222,31.2299191 5.65833333,31.6843629 6.19444444,31.6843629 L29.8055556,31.6843629 C30.3416667,31.6843629 30.7777778,31.2299191 30.7777778,30.6712716 L30.7777778,13.1578186 C30.7777778,12.5184133 31.2752083,12 31.8888889,12 C32.5025694,12 33,12.5184133 33,13.1578186 L33,30.6712716 C33,32.5067035 31.5670139,34 29.8055556,34 Z" id="Shape"></path>
                    <path d="M34.8750165,17.9999456 C34.5870865,17.9999456 34.2992269,17.8865479 34.0795704,17.6596801 L20.0881427,3.21368225 C18.9367744,2.02482236 17.063296,2.02482236 15.9118573,3.21368225 L1.92049992,17.6597527 C1.48118699,18.1134158 0.76885036,18.1134158 0.329537431,17.6597527 C-0.10984581,17.2061623 -0.10984581,16.4706751 0.329537431,16.0170847 L14.3208948,1.57094156 C16.3495531,-0.523647187 19.6505172,-0.523647187 21.6791052,1.57094156 L35.6704626,16.0170121 C36.1098458,16.4706751 36.1098458,17.2060897 35.6704626,17.6596801 C35.4508764,17.8865479 35.1629464,17.9999456 34.8750165,17.9999456 Z" id="Shape"></path>
                    <path d="M21.9,34 L13.1,34 C12.4924563,34 12,33.4833654 12,32.8461538 L12,22.6057692 C12,20.6175481 13.5420625,19 15.4375,19 L19.5625,19 C21.4579375,19 23,20.6175481 23,22.6057692 L23,32.8461538 C23,33.4833654 22.5075438,34 21.9,34 Z M14.2,31.6923077 L20.8,31.6923077 L20.8,22.6057692 C20.8,21.890024 20.2448438,21.3076923 19.5625,21.3076923 L15.4375,21.3076923 C14.7551563,21.3076923 14.2,21.890024 14.2,22.6057692 L14.2,31.6923077 Z" id="Shape"></path>
                </g>
            </g>
        </g>
    </g>
</svg>