<?xml version="1.0" encoding="UTF-8"?>
<svg width="16px" height="16px" viewBox="0 0 16 16" version="1.1" xmlns="http://www.w3.org/2000/svg" xmlns:xlink="http://www.w3.org/1999/xlink">
    <!-- Generator: Sketch 51.3 (57544) - http://www.bohemiancoding.com/sketch -->
    <title>instagram</title>
    <desc>Created with Sketch.</desc>
    <defs></defs>
    <g id="blog" stroke="none" stroke-width="1" fill="none" fill-rule="evenodd">
        <g id="生命科学" transform="translate(-1122.000000, -2530.000000)" fill="#656D7A" fill-rule="nonzero">
            <g id="FOOTER-Copy-2" transform="translate(-232.000000, 2230.000000)">
                <g id="Bottom-Bar" transform="translate(0.000000, 300.000000)">
                    <g id="Social-Icons" transform="translate(1274.000000, 0.000000)">
                        <g id="instagram" transform="translate(80.000000, 0.000000)">
                            <ellipse id="Oval" cx="12.1323621" cy="3.892" rx="1" ry="1"></ellipse>
                            <path d="M7.99167534,12 C5.78797086,12 3.99583767,10.206 3.99583767,8 C3.99583767,5.794 5.78797086,4 7.99167534,4 C10.1953798,4 11.987513,5.794 11.987513,8 C11.987513,10.206 10.1953798,12 7.99167534,12 Z M7.99167534,6 C6.8898231,6 5.9937565,6.897 5.9937565,8 C5.9937565,9.103 6.8898231,10 7.99167534,10 C9.09352758,10 9.98959417,9.103 9.98959417,8 C9.98959417,6.897 9.09352758,6 7.99167534,6 Z" id="Shape"></path>
                            <path d="M11.987513,16 L3.99583767,16 C1.94197711,16 0,14.056 0,12 L0,4 C0,1.944 1.94197711,0 3.99583767,0 L11.987513,0 C14.0413736,0 15.9833507,1.944 15.9833507,4 L15.9833507,12 C15.9833507,14.056 14.0413736,16 11.987513,16 Z M3.99583767,2 C3.06181061,2 1.99791883,3.065 1.99791883,4 L1.99791883,12 C1.99791883,12.953 3.04382934,14 3.99583767,14 L11.987513,14 C12.9215401,14 13.9854318,12.935 13.9854318,12 L13.9854318,4 C13.9854318,3.065 12.9215401,2 11.987513,2 L3.99583767,2 Z" id="Shape"></path>
                        </g>
                    </g>
                </g>
            </g>
        </g>
    </g>
</svg>