<?xml version="1.0" encoding="UTF-8"?>
<svg width="16px" height="16px" viewBox="0 0 16 16" version="1.1" xmlns="http://www.w3.org/2000/svg" xmlns:xlink="http://www.w3.org/1999/xlink">
    <!-- Generator: Sketch 51.3 (57544) - http://www.bohemiancoding.com/sketch -->
    <title>search</title>
    <desc>Created with Sketch.</desc>
    <defs></defs>
    <g id="Symbols" stroke="none" stroke-width="1" fill="none" fill-rule="evenodd">
        <g id="Search/white" transform="translate(-405.000000, -22.000000)" fill="#B02031" fill-rule="nonzero">
            <g id="Search" transform="translate(9.000000, 5.000000)">
                <g id="search" transform="translate(396.000000, 17.000000)">
                    <path d="M15.4795789,14.5647719 L11.6738246,10.6065965 C12.6523509,9.44336842 13.1884912,7.97978947 13.1884912,6.45614035 C13.1884912,2.8962807 10.2922105,0 6.73235088,0 C3.17249123,0 0.276210526,2.8962807 0.276210526,6.45614035 C0.276210526,10.016 3.17249123,12.9122807 6.73235088,12.9122807 C8.06877193,12.9122807 9.34231579,12.509193 10.4311579,11.744 L14.2658246,15.7322105 C14.4261053,15.8986667 14.6416842,15.9904561 14.8727018,15.9904561 C15.0913684,15.9904561 15.298807,15.9070877 15.4562807,15.7555088 C15.7908772,15.4335439 15.8015439,14.8996491 15.4795789,14.5647719 Z M6.73235088,1.68421053 C9.36364912,1.68421053 11.5042807,3.82484211 11.5042807,6.45614035 C11.5042807,9.0874386 9.36364912,11.2280702 6.73235088,11.2280702 C4.10105263,11.2280702 1.96042105,9.0874386 1.96042105,6.45614035 C1.96042105,3.82484211 4.10105263,1.68421053 6.73235088,1.68421053 Z" id="Shape"></path>
                </g>
            </g>
        </g>
    </g>
</svg>