<?xml version="1.0" encoding="UTF-8"?>
<svg width="34px" height="37px" viewBox="0 0 34 37" version="1.1" xmlns="http://www.w3.org/2000/svg" xmlns:xlink="http://www.w3.org/1999/xlink">
    <!-- Generator: Sketch 51.3 (57544) - http://www.bohemiancoding.com/sketch -->
    <title>Me Icon</title>
    <desc>Created with Sketch.</desc>
    <defs></defs>
    <g id="home" stroke="none" stroke-width="1" fill="none" fill-rule="evenodd">
        <g id="home-mobile" transform="translate(-552.000000, -2564.000000)" fill="#666666">
            <g id="Me" transform="translate(523.000000, 2564.000000)">
                <g id="Me-Icon" transform="translate(28.000000, 0.000000)">
                    <path d="M17.6862099,0.000132843245 C12.316576,0.000132843245 7.94812435,4.35318458 7.94812435,9.7038891 C7.94812435,15.0543722 12.316576,19.4074239 17.6862099,19.4074239 C23.0558438,19.4074239 27.4242955,15.0543722 27.4242955,9.7038891 C27.4242955,4.35318458 23.0558438,0.000132843245 17.6862099,0.000132843245 M17.6862099,3.09980857 C21.3463241,3.09980857 24.3136539,6.05645639 24.3136539,9.7038891 C24.3136539,13.3511004 21.3463241,16.3077482 17.6862099,16.3077482 C14.0260958,16.3077482 11.0587659,13.3511004 11.0587659,9.7038891 C11.0587659,6.05645639 14.0260958,3.09980857 17.6862099,3.09980857" id="Fill-1"></path>
                    <path d="M34.3810572,33.88728 C33.6646387,29.2645388 31.7031912,25.4461604 28.7089167,22.8454496 C25.8124542,20.3297048 22.0011073,19 17.6862544,19 C13.3716383,19 9.55981773,20.3297048 6.66335516,22.8454496 C3.66908074,25.4461604 1.70787007,29.2645388 0.991451485,33.88728 C0.833247315,34.9079444 1.43598625,35.8803631 2.33784475,36.0594083 C2.43470928,36.0787065 2.53110015,36.0878196 2.62607002,36.0878196 C3.41614353,36.0878196 4.11598383,35.44642 4.25713606,34.5353805 C5.41761574,27.0471132 10.3122349,22.7524426 17.6862544,22.7524426 C25.0602739,22.7524426 29.954893,27.0471132 31.1153727,34.5353805 C31.2565249,35.44642 31.9561284,36.0878196 32.7462019,36.0878196 C32.8414086,36.0878196 32.9377994,36.0787065 33.034664,36.0594083 C33.9365225,35.8803631 34.5392614,34.9079444 34.3810572,33.88728" id="Fill-3"></path>
                </g>
            </g>
        </g>
    </g>
</svg>