<?xml version="1.0" encoding="UTF-8"?>
<svg width="14px" height="14px" viewBox="0 0 14 14" version="1.1" xmlns="http://www.w3.org/2000/svg" xmlns:xlink="http://www.w3.org/1999/xlink">
    <!-- Generator: Sketch 51.3 (57544) - http://www.bohemiancoding.com/sketch -->
    <title>Icon/UI/Phone Copy 2</title>
    <desc>Created with Sketch.</desc>
    <defs></defs>
    <g id="home" stroke="none" stroke-width="1" fill="none" fill-rule="evenodd" stroke-linecap="round" stroke-linejoin="round">
        <g transform="translate(-1005.000000, -11.000000)" fill="#888888" id="Icon/UI/Phone" stroke="#B7BEC6">
            <g transform="translate(1005.000000, 11.000000)">
                <g id="phone" fill="none" transform="translate(0.875000, 0.875000)">
                    <path d="M11.6666667,8.70333333 L11.6666667,10.4533333 C11.6680001,10.7818346 11.530778,11.0956757 11.2887121,11.3177545 C11.0466462,11.5398333 10.7221706,11.6495681 10.395,11.62 C8.59998642,11.4249571 6.87574951,10.8115843 5.36083333,9.82916667 C3.95139974,8.93355391 2.75644609,7.73860026 1.86083333,6.32916667 C0.8749872,4.80736899 0.261475084,3.07474683 0.07,1.27166667 C0.0405260394,0.94550886 0.149492005,0.62198058 0.370280038,0.380112282 C0.591068071,0.138243985 0.90334664,0.000308402639 1.23083333,-2.60547335e-17 L2.98083333,-2.60547335e-17 C3.5664207,-0.00576342501 4.06554216,0.423481031 4.1475,1.00333333 C4.22136343,1.5633721 4.35834552,2.11325735 4.55583333,2.6425 C4.71609542,3.06884377 4.61359213,3.54947032 4.29333333,3.87333333 L3.5525,4.61416667 C4.38290736,6.0745684 5.59209827,7.28375931 7.0525,8.11416667 L7.79333333,7.37333333 C8.11719635,7.05307454 8.5978229,6.95057125 9.02416667,7.11083333 C9.55340932,7.30832115 10.1032946,7.44530324 10.6633333,7.51916667 C11.2499116,7.60191852 11.6813608,8.11112901 11.6666667,8.70333333 Z" id="Shape" stroke-width="2"></path>
                </g>
            </g>
        </g>
    </g>
</svg>