<?xml version="1.0" encoding="UTF-8"?>
<svg width="28px" height="39px" viewBox="0 0 28 39" version="1.1" xmlns="http://www.w3.org/2000/svg" xmlns:xlink="http://www.w3.org/1999/xlink">
    <!-- Generator: Sketch 51.3 (57544) - http://www.bohemiancoding.com/sketch -->
    <title>lab (1)</title>
    <desc>Created with Sketch.</desc>
    <defs></defs>
    <g id="home" stroke="none" stroke-width="1" fill="none" fill-rule="evenodd">
        <g id="home-mobile" transform="translate(-182.000000, -2562.000000)" fill="#666666" fill-rule="nonzero" stroke="#666666">
            <g id="lab-(1)" transform="translate(183.000000, 2563.000000)">
                <path d="M25.7350959,31.9118996 L18.0256082,12.9267375 C17.5980915,11.8734894 17.3811343,10.762352 17.3811343,9.62395606 L17.3811343,4.60557173 C17.3811343,4.06517788 17.5894688,3.5571009 17.967753,3.17491909 C18.428926,2.70899455 18.6831552,2.08935422 18.6831552,1.43037157 L18.6831552,0.719401042 C18.6831552,0.322044337 18.364117,0 17.9710908,0 L8.02916997,0 C7.6358657,0 7.31710559,0.322044337 7.31710559,0.719401042 L7.31710559,1.43037157 C7.31710559,2.08935422 7.57105673,2.70899455 8.03222964,3.17491909 C8.41051384,3.5571009 8.61884829,4.06517788 8.61884829,4.6058528 L8.61884829,9.62395606 C8.61884829,10.762352 8.40216938,11.8734894 7.97437441,12.9267375 L5.85598287,18.1435191 C5.8551484,18.1454862 5.854314,18.1474533 5.85347953,18.1494204 L0.264886724,31.9118996 C-0.18265685,33.0143254 -0.0577674501,34.2634417 0.599223168,35.2528992 C1.25621386,36.2426376 2.35240358,36.8333333 3.53176022,36.8333333 L22.4682224,36.8333333 C23.6475791,36.8333333 24.744047,36.2426376 25.4010376,35.2528992 C26.0577501,34.2631607 26.1826396,33.0143254 25.7350959,31.9118996 Z M9.29197172,13.4727516 C9.79041679,12.2455546 10.0429771,10.9506327 10.0429771,9.62395606 L10.0429771,4.60557173 C10.0429771,3.68102902 9.68666673,2.81156538 9.03941132,2.15764113 C8.84915668,1.96542609 8.74345956,1.71026361 8.74123436,1.43880208 L17.2590264,1.43880208 C17.2568012,1.71026361 17.1511042,1.96514509 16.9605713,2.15764113 C16.313594,2.81156538 15.9570056,3.68074795 15.9570056,4.60557173 L15.9570056,9.62367506 C15.9570056,10.9503517 16.209844,12.2452736 16.708011,13.4724706 L18.427257,17.7062581 L7.57272559,17.7062581 L9.29197172,13.4727516 Z M24.218065,34.4514414 C23.8203104,35.0508486 23.182512,35.3945312 22.4682224,35.3945312 L3.53176022,35.3945312 C2.81774876,35.3945312 2.17995049,35.0508486 1.78191768,34.4514414 C1.48179365,33.9992867 1.36719579,33.4749107 1.44507783,32.9578412 L2.61831512,32.9578412 C3.01134127,32.9578412 3.33037951,32.6355159 3.33037951,32.2384402 C3.33037951,31.8410835 3.01134127,31.5190391 2.61831512,31.5190391 L1.96410597,31.5190391 L2.78186741,29.5047162 L3.98291979,29.5047162 C4.37622407,29.5047162 4.69498418,29.1823909 4.69498418,28.7853152 C4.69498418,28.3879585 4.37622407,28.0659141 3.98291979,28.0659141 L3.36626093,28.0659141 L4.1840223,26.0515912 L5.41900897,26.0515912 C5.81231331,26.0515912 6.13107335,25.7292659 6.13107335,25.3321902 C6.13107335,24.9348335 5.81231331,24.6127891 5.41900897,24.6127891 L4.76841582,24.6127891 L5.58645539,22.5984662 L6.85482007,22.5984662 C7.24812435,22.5984662 7.56688446,22.2761409 7.56688446,21.8790652 C7.56688446,21.4817085 7.24812435,21.1596641 6.85482007,21.1596641 L6.17057071,21.1596641 L6.98861028,19.1453412 L19.0113724,19.1453412 L24.4174987,32.4581948 C24.688417,33.1256078 24.6158197,33.8523153 24.218065,34.4514414 Z" id="Shape"></path>
            </g>
        </g>
    </g>
</svg>