<?xml version="1.0" encoding="UTF-8"?>
<svg width="40px" height="36px" viewBox="0 0 40 36" version="1.1" xmlns="http://www.w3.org/2000/svg" xmlns:xlink="http://www.w3.org/1999/xlink">
    <!-- Generator: Sketch 51.3 (57544) - http://www.bohemiancoding.com/sketch -->
    <title>commerce-and-shopping copy</title>
    <desc>Created with Sketch.</desc>
    <defs></defs>
    <g id="home" stroke="none" stroke-width="1" fill="none" fill-rule="evenodd">
        <g id="home-mobile" transform="translate(-422.000000, -2565.000000)" fill="#666666" fill-rule="nonzero">
            <g id="Group-23-Copy" transform="translate(273.000000, 2513.000000)">
                <g id="commerce-and-shopping-copy" transform="translate(149.000000, 52.000000)">
                    <path d="M12.9687136,24.1667191 L34.1408344,24.1667191 C34.665125,24.1667191 35.1250235,23.8092577 35.2669299,23.2900577 L39.9547219,6.37325988 C40.0554297,6.00856113 39.9864601,5.616801 39.7645979,5.313777 C39.5424306,5.01169695 39.1969726,4.83328089 38.8283213,4.83328089 L10.2633379,4.83328089 L9.42563278,0.946517508 C9.30661452,0.393018719 8.83054164,0 8.28122678,0 L1.17187171,0 C0.524290561,0 0,0.540597473 0,1.20832022 C0,1.8763577 0.524290561,2.41664045 1.17187171,2.41664045 L7.34067769,2.41664045 L11.5725383,22.0518441 C10.3274246,22.6100629 9.45309849,23.8879244 9.45309849,25.3750393 C9.45309849,27.3738024 11.0302425,29 12.9687136,29 L34.1408344,29 C34.7887208,29 35.3127061,28.4597173 35.3127061,27.7916798 C35.3127061,27.123957 34.7887208,26.5833596 34.1408344,26.5833596 L12.9687136,26.5833596 C12.3232686,26.5833596 11.7968419,26.0418181 11.7968419,25.3750393 C11.7968419,24.7082605 12.3232686,24.1667191 12.9687136,24.1667191 Z" id="Path"></path>
                    <path d="M12,32.5 C12,34.4301649 13.5700707,36 15.5001519,36 C17.4299293,36 19,34.4301649 19,32.5 C19,30.5701389 17.4299293,29 15.5001519,29 C13.5700707,29 12,30.5701389 12,32.5 Z" id="Path"></path>
                    <path d="M28,32.5 C28,34.4301649 29.5701389,36 31.5,36 C33.4301649,36 35,34.4301649 35,32.5 C35,30.5701389 33.4301649,29 31.5,29 C29.5701389,29 28,30.5701389 28,32.5 Z" id="Path"></path>
                </g>
            </g>
        </g>
    </g>
</svg>