<?xml version="1.0" encoding="UTF-8"?>
<svg width="20px" height="20px" viewBox="0 0 20 20" version="1.1" xmlns="http://www.w3.org/2000/svg" xmlns:xlink="http://www.w3.org/1999/xlink">
    <!-- Generator: Sketch 51.3 (57544) - http://www.bohemiancoding.com/sketch -->
    <title>share</title>
    <desc>Created with Sketch.</desc>
    <defs></defs>
    <g id="product-pages" stroke="none" stroke-width="1" fill="none" fill-rule="evenodd">
        <g id="3.3产品详情页2" transform="translate(-716.999023, -340.000000)" fill="#000000">
            <g id="share" transform="translate(717.000000, 340.000000)">
                <path d="M1.62695312,9.99999118 L2.26981026,9.99999118 C2.26981026,8.58569766 3.42694522,7.4285627 4.84123874,7.4285627 L4.84123874,6.78570557 C3.07336188,6.78570557 1.62695312,8.23211432 1.62695312,9.99999118 Z" id="Shape"></path>
                <path d="M16.7741871,13.5483599 C15.6774032,13.5483599 14.7419286,14.09675 14.1612673,14.9031806 L9.19350684,12.0967305 C9.51608837,11.4515698 9.67735946,10.7419097 9.67735946,9.99998033 C9.67735946,9.25805032 9.48381841,8.54839027 9.19350684,7.90323019 L14.1612673,5.09678006 C14.7419286,5.93548 15.7096732,6.45160019 16.7741871,6.45160019 C18.5483646,6.45160019 20,5.00001013 20,3.2258001 C20,1.45162985 18.548404,0 16.7741871,0 C14.9999702,0 13.5483742,1.45159021 13.5483742,3.2258001 C13.5483742,3.67742002 13.6451447,4.12903994 13.8386858,4.51611996 L8.8709259,7.32257009 C7.99995244,5.99997997 6.51608646,5.16128004 4.83867973,5.16128004 C2.16129854,5.16131997 0,7.32261002 0,10.0000203 C0,12.6774299 2.16129854,14.8387194 4.83871937,14.8387194 C6.5161258,14.8387194 7.99999177,13.9677501 8.87096524,12.6774299 L13.8064551,15.48388 C13.645184,15.8709598 13.5161436,16.3225806 13.5161436,16.7742002 C13.5161436,18.5483706 14.9677396,20 16.7419565,20 C18.516134,20 19.9677694,18.5484099 19.9677694,16.7742002 C20,14.9999905 18.548404,13.5483599 16.7741871,13.5483599 Z M16.7741871,0.645199716 C18.1935526,0.645199716 19.3548374,1.8064798 19.3548374,3.22583979 C19.3548374,4.64519971 18.1935526,5.80647987 16.7741871,5.80647987 C15.3548215,5.80647987 14.1935368,4.64519971 14.1935368,3.22583979 C14.1935368,1.8064798 15.3548215,0.645199716 16.7741871,0.645199716 Z M4.83871937,14.1935191 C2.51614996,14.1935191 0.645162582,12.3225396 0.645162582,9.99997978 C0.645162582,7.67741984 2.51611021,5.80647993 4.83871937,5.80647993 C7.16132852,5.80647993 9.03227615,7.67741984 9.03227615,10.0000195 C9.03227615,12.3226191 7.16128903,14.1935191 4.83871937,14.1935191 Z M16.7741871,19.3548012 C15.3548215,19.3548012 14.1935368,18.1935209 14.1935368,16.7741609 C14.1935368,15.3548007 15.3548215,14.1935205 16.7741871,14.1935205 C18.1935526,14.1935205 19.3548374,15.3548007 19.3548374,16.7741609 C19.3548374,18.1935209 18.1935526,19.3548012 16.7741871,19.3548012 Z" id="Shape"></path>
            </g>
        </g>
    </g>
</svg>