<?xml version="1.0" encoding="utf-8"?>
<!-- Generator: Adobe Illustrator 20.1.0, SVG Export Plug-In . SVG Version: 6.00 Build 0)  -->
<svg version="1.1"
	 id="svg2" xmlns:cc="http://creativecommons.org/ns#" xmlns:dc="http://purl.org/dc/elements/1.1/" xmlns:rdf="http://www.w3.org/1999/02/22-rdf-syntax-ns#" xmlns:svg="http://www.w3.org/2000/svg"
	 xmlns="http://www.w3.org/2000/svg" xmlns:xlink="http://www.w3.org/1999/xlink" x="0px" y="0px" viewBox="0 0 120 120"
	 style="enable-background:new 0 0 120 120;" xml:space="preserve">
<style type="text/css">
	.st0{fill:#231F20;}
	.st1{font-family:'Helvetica';}
	.st2{font-size:13.3333px;}
</style>
<g id="g10" transform="matrix(1.3333333,0,0,-1.3333333,0,70.666667)">
	<g id="g12" transform="scale(0.1)">
		<g id="g14" transform="scale(10)">
			<text transform="matrix(0.75 0 0 -0.75 46.8349 9.2058)" class="st0 st1 st2">O</text>
		</g>
		<path id="path20" class="st0" d="M302.8,9.6l-1.5-3.5l-8,8.5l-67,115.5l3,1l6.5-5"/>
		<path id="path22" class="st0" d="M440.8,46.1v-3.5l-1.5-3.5l-138-36v3l1.5,3.5"/>
		<path id="path24" class="st0" d="M573.3,11.1l6-5l-0.5-3l-132,35l-6,4.5v3.5"/>
		<path id="path26" class="st0" d="M532.3,81.6l5,3l43.5-75.5l-1.5-3l-6,5"/>
		<path id="path28" class="st0" d="M367.8,91.6v6l88.5,23l1.5-5.5L367.8,91.6z"/>
		<path id="path30" class="st0" d="M235.8,126.1l-6.5,5l3,2l135.5-35.5v-6"/>
		<g id="g32" transform="scale(10)">
			<text transform="matrix(0.75 0 0 -0.75 19.0347 23.606)" class="st0 st1 st2">O</text>
			<text transform="matrix(0.75 0 0 -0.75 26.8149 23.606)" class="st0 st1 st2">H</text>
		</g>
		<path id="path38" class="st0" d="M226.3,219.6h6v-86.5l-3-2l-3-1"/>
		<g id="g40" transform="scale(10)">
			<text transform="matrix(0.75 0 0 -0.75 6.5847 3.906)" class="st0 st1 st2">H</text>
			<text transform="matrix(0.75 0 0 -0.75 13.8049 3.906)" class="st0 st1 st2">O</text>
		</g>
		<path id="path46" class="st0" d="M220.8,49.1l3,5.5l69.5-40l8-8.5v-3"/>
		<g id="g48" transform="scale(10)">
			<text transform="matrix(0.75 0 0 -0.75 68.4348 -3.294)" class="st0 st1 st2">O</text>
			<text transform="matrix(0.75 0 0 -0.75 76.2146 -3.294)" class="st0 st1 st2">H</text>
		</g>
		<path id="path54" class="st0" d="M672.8,9.1v-6h-94l0.5,3l1.5,3"/>
		<g id="g56" transform="scale(10)">
			<text transform="matrix(0.75 0 0 -0.75 47.385 -12.0941)" class="st0 st1 st2">O</text>
			<text transform="matrix(0.75 0 0 -0.75 55.1648 -12.0941)" class="st0 st1 st2">H</text>
		</g>
		<path id="path62" class="st0" d="M490.3-36.9l-5.5-3l-45.5,79l1.5,3.5l6-4.5"/>
	</g>
</g>
</svg>
