<?xml version="1.0" encoding="UTF-8"?>
<svg width="16px" height="14px" viewBox="0 0 16 14" version="1.1" xmlns="http://www.w3.org/2000/svg" xmlns:xlink="http://www.w3.org/1999/xlink">
    <!-- Generator: Sketch 51.3 (57544) - http://www.bohemiancoding.com/sketch -->
    <title>twitter</title>
    <desc>Created with Sketch.</desc>
    <defs></defs>
    <g id="blog" stroke="none" stroke-width="1" fill="none" fill-rule="evenodd">
        <g id="生命科学" transform="translate(-1082.000000, -2531.000000)" fill="#656D7A" fill-rule="nonzero">
            <g id="FOOTER-Copy-2" transform="translate(-232.000000, 2230.000000)">
                <g id="Bottom-Bar" transform="translate(0.000000, 300.000000)">
                    <g id="Social-Icons" transform="translate(1274.000000, 0.000000)">
                        <g id="twitter" transform="translate(40.000000, 1.000000)">
                            <path d="M15.9833507,2 C15.383975,2.3 14.7845994,2.4 14.0853278,2.5 C14.7845994,2.1 15.2840791,1.5 15.483871,0.7 C14.8844953,1.1 14.1852237,1.3 13.3860562,1.5 C12.7866805,0.9 11.8876171,0.5 10.9885536,0.5 C9.29032258,0.5 7.79188345,2 7.79188345,3.8 C7.79188345,4.1 7.79188345,4.3 7.8917794,4.5 C5.19458897,4.4 2.69719043,3.1 1.09885536,1.1 C0.799167534,1.6 0.699271592,2.1 0.699271592,2.8 C0.699271592,3.9 1.29864724,4.9 2.19771072,5.5 C1.69823101,5.5 1.1987513,5.3 0.699271592,5.1 C0.699271592,5.1 0.699271592,5.1 0.699271592,5.1 C0.699271592,6.7 1.79812695,8 3.29656608,8.3 C2.99687825,8.4 2.69719043,8.4 2.3975026,8.4 C2.19771072,8.4 1.99791883,8.4 1.79812695,8.3 C2.19771072,9.6 3.39646202,10.6 4.89490114,10.6 C3.79604579,11.5 2.3975026,12 0.799167534,12 C0.499479709,12 0.299687825,12 6.66133815e-16,12 C1.49843913,12.9 3.19667014,13.5 4.99479709,13.5 C10.9885536,13.5 14.2851197,8.5 14.2851197,4.2 C14.2851197,4.1 14.2851197,3.9 14.2851197,3.8 C14.9843913,3.3 15.5837669,2.7 15.9833507,2 Z" id="Shape"></path>
                        </g>
                    </g>
                </g>
            </g>
        </g>
    </g>
</svg>