<?xml version="1.0" encoding="UTF-8"?>
<svg width="111px" height="121px" viewBox="0 0 111 121" version="1.1" xmlns="http://www.w3.org/2000/svg" xmlns:xlink="http://www.w3.org/1999/xlink">
    <!-- Generator: Sketch 51.3 (57544) - http://www.bohemiancoding.com/sketch -->
    <title>Group 43</title>
    <desc>Created with Sketch.</desc>
    <defs>
        <polygon id="path-1" points="0.77474958 0.76166732 93.4350521 0.76166732 93.4350521 121 0.77474958 121"></polygon>
        <polygon id="path-3" points="0 0.167526316 13.9289111 0.167526316 13.9289111 14.3054211 0 14.3054211"></polygon>
    </defs>
    <g id="home" stroke="none" stroke-width="1" fill="none" fill-rule="evenodd">
        <g transform="translate(-1114.000000, -877.000000)" id="Left-10-Copy-2">
            <g transform="translate(751.000000, 961.000000) rotate(-360.000000) translate(-751.000000, -961.000000) translate(-209.000000, 779.000000)">
                <g id="Text-Copy" transform="translate(1276.000000, 75.000000)">
                    <g id="1">
                        <g id="Group-22">
                            <g id="Group-43" transform="translate(47.000000, 23.000000)">
                                <g id="Group-3" transform="translate(17.000000, 0.000000)">
                                    <mask id="mask-2" fill="white">
                                        <use xlink:href="#path-1"></use>
                                    </mask>
                                    <g id="Clip-2"></g>
                                    <path d="M77.3839597,104.860419 C69.3592034,112.950811 58.6526824,117.406458 47.2360269,117.406458 C23.5535563,117.406458 4.28671597,98.184066 4.28671597,74.5558503 C4.28671597,65.8580856 6.84209412,57.4877327 11.6763798,50.3495235 C16.3992874,43.3758111 22.9121445,38.0146412 30.6256739,34.8441248 L31.6786319,34.3862229 L31.6786319,4.71591569 L62.4853546,4.71591569 L62.4853546,34.4850791 L63.365321,34.9406085 C79.5759765,41.5386673 89.9317748,57.0883536 89.9317748,74.5558503 C89.9317748,86.0176346 85.3984471,96.7803078 77.3839597,104.860419 M65.6450185,32.0840595 L65.6450185,4.71591569 L69.5558924,4.71591569 C70.7123294,4.71591569 71.6499597,3.89659542 71.6499597,2.7387915 C71.6499597,1.58098758 70.7123294,0.76166732 69.5558924,0.76166732 L25.0504471,0.76166732 C23.8940101,0.76166732 22.9571697,1.58098758 22.9571697,2.7387915 C22.9571697,3.89659542 23.8940101,4.71591569 25.0504471,4.71591569 L28.5189681,4.71591569 L28.5189681,31.9946935 C19.8298924,35.4815497 13.752279,41.1100268 8.86032941,48.3328569 C3.62160672,56.0681575 0.77474958,65.1360399 0.77474958,74.5558503 C0.77474958,100.165144 21.6135227,121.000079 47.2747328,121.000079 C59.6542958,121.000079 71.2463126,116.167197 79.9503966,107.39272 C88.6363126,98.6348503 93.4350521,86.972981 93.4350521,74.5558503 C93.4350521,56.0238699 82.2332538,39.4848307 65.6450185,32.0840595" id="Fill-1" fill="#3A3A3A" mask="url(#mask-2)"></path>
                                </g>
                                <path d="M27,74.043 L27.001,74.043 C27.001,74.028 27,74.014 27,74 L27,74.043 Z" id="Fill-4" fill="#170A99"></path>
                                <path d="M99.2434672,73.0354931 C96.6670603,75.5513724 92.7091018,76.7637288 89.2786593,77.3843017 C82.347068,78.6374431 75.0698903,78.5742662 68.1978829,76.9924451 C61.0867455,75.3546444 54.4260623,72.2493808 47.1242565,71.4256822 C40.3579112,70.6627614 33.2316793,70.641969 27,73.7896172 C27.0182724,94.3428957 43.5762352,111 63.9992055,111 C84.4340927,111 101,92.2052779 101,71.6352056 L99.2434672,73.0354931 Z" id="Fill-6" fill="#170A99"></path>
                                <path d="M14.0692143,118 L26.8425714,118 C29.1722143,118 32,115.619905 32,113.254964 L32,51 L10,51 L10,113.254964 C10,115.619905 11.7395714,118 14.0692143,118" id="Fill-8" fill="#FFFFFF"></path>
                                <path d="M31.2857143,113.533158 C31.2857143,115.909474 29.3355714,117.842105 26.9705714,117.842105 L12.7632857,117.842105 C10.3982857,117.842105 8.5,115.909474 8.5,113.533158 L8.5,50.7368421 L9.13014286,50.7368421 L30.3522857,50.7368421 L31.2857143,50.7368421 L31.2857143,113.533158 Z M34.0145,46 L5.26992857,46 C4.22571429,46 3,46.9607895 3,48.0107895 L3,48.6376316 C3,49.6868421 4.22571429,50.7368421 5.26992857,50.7368421 L5.35714286,50.7368421 L5.35714286,113.533158 C5.35714286,117.650263 8.665,121 12.7632857,121 L26.9705714,121 C31.0688571,121 34.4285714,117.650263 34.4285714,113.533158 L34.4285714,50.6886842 C35.2142857,50.4723684 36,49.555 36,48.6376316 L36,48.0107895 C36,46.9607895 35.0587143,46 34.0145,46 Z" id="Fill-10" fill="#3A3A3A"></path>
                                <path d="M18.4049191,60 L14.5950809,60 C14.2657643,60 14,59.8031688 14,59.5606338 L14,59.4393662 C14,59.1968312 14.2657643,59 14.5950809,59 L18.4049191,59 C18.7334104,59 19,59.1968312 19,59.4393662 L19,59.5606338 C19,59.8031688 18.7334104,60 18.4049191,60" id="Fill-12" fill="#3A3A3A"></path>
                                <path d="M18.4049191,64 L14.5950809,64 C14.2657643,64 14,63.8031688 14,63.5606338 L14,63.4393662 C14,63.1968312 14.2657643,63 14.5950809,63 L18.4049191,63 C18.7334104,63 19,63.1968312 19,63.4393662 L19,63.5606338 C19,63.8031688 18.7334104,64 18.4049191,64" id="Fill-14" fill="#3A3A3A"></path>
                                <path d="M18.4049191,68 L14.5950809,68 C14.2657643,68 14,67.8031688 14,67.5606338 L14,67.4393662 C14,67.1968312 14.2657643,67 14.5950809,67 L18.4049191,67 C18.7334104,67 19,67.1968312 19,67.4393662 L19,67.5606338 C19,67.8031688 18.7334104,68 18.4049191,68" id="Fill-16" fill="#3A3A3A"></path>
                                <path d="M18.4049191,73 L14.5950809,73 C14.2657643,73 14,72.8031688 14,72.5606338 L14,72.4393662 C14,72.1968312 14.2657643,72 14.5950809,72 L18.4049191,72 C18.7334104,72 19,72.1968312 19,72.4393662 L19,72.5606338 C19,72.8031688 18.7334104,73 18.4049191,73" id="Fill-18" fill="#3A3A3A"></path>
                                <path d="M18.4049191,77 L14.5950809,77 C14.2657643,77 14,76.8031688 14,76.5606338 L14,76.4393662 C14,76.1968312 14.2657643,76 14.5950809,76 L18.4049191,76 C18.7334104,76 19,76.1968312 19,76.4393662 L19,76.5606338 C19,76.8031688 18.7334104,77 18.4049191,77" id="Fill-20" fill="#3A3A3A"></path>
                                <path d="M18.4049191,81 L14.5950809,81 C14.2657643,81 14,80.8031688 14,80.5606338 L14,80.4393662 C14,80.1968312 14.2657643,80 14.5950809,80 L18.4049191,80 C18.7334104,80 19,80.1968312 19,80.4393662 L19,80.5606338 C19,80.8031688 18.7334104,81 18.4049191,81" id="Fill-22" fill="#3A3A3A"></path>
                                <path d="M25.3938919,113 L13.605325,113 C12.1667972,113 11,111.836712 11,110.401729 L11,86 L28,86 L28,110.401729 C28,111.836712 26.8332028,113 25.3938919,113" id="Fill-24" fill="#3A3A3C"></path>
                                <path d="M18,7.5 C18,9.9852459 15.9854294,12 13.5004098,12 C11.0145706,12 9,9.9852459 9,7.5 C9,5.0147541 11.0145706,3 13.5004098,3 C15.9854294,3 18,5.0147541 18,7.5" id="Fill-26" fill="#170A99"></path>
                                <path d="M57,83 C57,86.3136203 54.313796,89 51.0003925,89 C47.686204,89 45,86.3136203 45,83 C45,79.6863797 47.686204,77 51.0003925,77 C54.313796,77 57,79.6863797 57,83" id="Fill-28" fill="#FFFFFF"></path>
                                <path d="M70,92 C70,93.6567888 68.6567888,95 67,95 C65.3432112,95 64,93.6567888 64,92 C64,90.3432112 65.3432112,89 67,89 C68.6567888,89 70,90.3432112 70,92" id="Fill-30" fill="#FFFFFF"></path>
                                <path d="M24,37 C24,39.2093488 22.2093488,41 20,41 C17.7906512,41 16,39.2093488 16,37 C16,34.7906512 17.7906512,33 20,33 C22.2093488,33 24,34.7906512 24,37" id="Fill-32" fill="#170A99"></path>
                                <g id="Group-36" transform="translate(0.000000, 18.000000)">
                                    <mask id="mask-4" fill="white">
                                        <use xlink:href="#path-3"></use>
                                    </mask>
                                    <g id="Clip-35"></g>
                                    <path d="M13.9289111,7.23647368 C13.9289111,11.1404211 10.8108,14.3054211 6.96468889,14.3054211 C3.1178,14.3054211 -0.000311111111,11.1404211 -0.000311111111,7.23647368 C-0.000311111111,3.33252632 3.1178,0.167526316 6.96468889,0.167526316 C10.8108,0.167526316 13.9289111,3.33252632 13.9289111,7.23647368" id="Fill-34" fill="#170A99" mask="url(#mask-4)"></path>
                                </g>
                                <path d="M18.4049191,90 L14.5950809,90 C14.2657643,90 14,89.8031688 14,89.5606338 L14,89.4393662 C14,89.1968312 14.2657643,89 14.5950809,89 L18.4049191,89 C18.7334104,89 19,89.1968312 19,89.4393662 L19,89.5606338 C19,89.8031688 18.7334104,90 18.4049191,90" id="Fill-37" fill="#FFFFFF"></path>
                                <path d="M18.4049191,95 L14.5950809,95 C14.2657643,95 14,94.8031688 14,94.5606338 L14,94.4393662 C14,94.1968312 14.2657643,94 14.5950809,94 L18.4049191,94 C18.7334104,94 19,94.1968312 19,94.4393662 L19,94.5606338 C19,94.8031688 18.7334104,95 18.4049191,95" id="Fill-39" fill="#FFFFFF"></path>
                                <path d="M18.4049191,99 L14.5950809,99 C14.2657643,99 14,98.8031688 14,98.5606338 L14,98.4393662 C14,98.1968312 14.2657643,98 14.5950809,98 L18.4049191,98 C18.7334104,98 19,98.1968312 19,98.4393662 L19,98.5606338 C19,98.8031688 18.7334104,99 18.4049191,99" id="Fill-41" fill="#FFFFFF"></path>
                            </g>
                        </g>
                    </g>
                </g>
            </g>
        </g>
    </g>
</svg>