<?xml version="1.0" encoding="UTF-8"?>
<svg width="135px" height="117px" viewBox="0 0 135 117" version="1.1" xmlns="http://www.w3.org/2000/svg" xmlns:xlink="http://www.w3.org/1999/xlink">
    <!-- Generator: Sketch 51.3 (57544) - http://www.bohemiancoding.com/sketch -->
    <title>Group 21</title>
    <desc>Created with Sketch.</desc>
    <defs></defs>
    <g id="home" stroke="none" stroke-width="1" fill="none" fill-rule="evenodd">
        <g transform="translate(-651.000000, -885.000000)" id="Left-10-Copy-2">
            <g transform="translate(751.000000, 961.000000) rotate(-360.000000) translate(-751.000000, -961.000000) translate(-209.000000, 779.000000)">
                <g id="Text" transform="translate(825.000000, 75.000000)">
                    <g id="1">
                        <g id="Group-19">
                            <g id="Group-21" transform="translate(35.000000, 31.000000)">
                                <path d="M53.0172117,15.4415229 L37.8058686,22.6618697 C36.0722198,23.4847983 33.9739012,22.753214 33.1431246,21.0359423 L29.3413367,13.1770162 C28.5105601,11.4597445 29.2491214,9.38124792 30.9836085,8.55831937 L46.1949515,1.33797254 C47.9286003,0.515043999 50.0260807,1.24745871 50.8568572,2.96473039 L54.6586451,10.8228261 C55.4894217,12.5400978 54.7508605,14.6185944 53.0172117,15.4415229" id="Fill-1" fill="#3A3A3A"></path>
                                <path d="M95,97.369993 L95,113.630815 C95,115.483907 93.4062019,117 91.4572824,117 L82.5427176,117 C80.5937981,117 79,115.483907 79,113.630815 L79,97.369993 C79,95.5169009 80.5937981,94 82.5427176,94 L91.4572824,94 C93.4062019,94 95,95.5169009 95,97.369993" id="Fill-3" fill="#3A3A3A"></path>
                                <path d="M77.3608461,43.2694777 L59.7244732,67.5746732 C58.6186663,69.0989499 56.4428042,69.4579872 54.8896859,68.3727153 L46.4522961,62.4755271 C44.8991779,61.3894391 44.533347,59.254799 45.6391539,57.7305223 L63.2755268,33.4253268 C64.3821651,31.9010501 66.5571958,31.5420128 68.1103141,32.6272847 L76.5477039,38.5244729 C78.1008221,39.6097449 78.466653,41.745201 77.3608461,43.2694777" id="Fill-5" fill="#3A3A3A"></path>
                                <path d="M125.924283,89.712348 L98.0664943,77.7133845 C96.3196033,76.9607119 95.5223812,74.9533147 96.295445,73.2525018 L100.493981,64.011986 C101.267045,62.311173 103.328826,61.5349794 105.075717,62.287652 L132.933506,74.2866155 C134.680397,75.038477 135.477619,77.0458742 134.704555,78.7466872 L130.506019,87.988014 C129.732955,89.688827 127.671174,90.4650206 125.924283,89.712348" id="Fill-7" fill="#3A3A3A"></path>
                                <path d="M121.949997,57.7089686 L88.0606391,42.8988108 C86.3186977,42.1372956 85.5237345,40.1063148 86.2946079,38.3855202 L90.4812482,29.0356234 C91.2521217,27.3148288 93.3080612,26.5295162 95.0500026,27.2910314 L128.939361,42.1020098 C130.681302,42.8627044 131.476266,44.8936852 130.705392,46.6144798 L126.518752,55.9643766 C125.747878,57.6851712 123.691939,58.4704838 121.949997,57.7089686" id="Fill-9" fill="#C51414"></path>
                                <path d="M81.6242759,18.7958803 C82.7903629,17.8131152 79.7517214,20.1354194 81.0034156,19.2639416 C81.7531024,18.7418732 82.508607,18.2378072 83.2973573,17.7746556 C84.3553963,17.1527559 85.4500053,16.6126852 86.5653929,16.0979814 C88.0880382,15.3967077 84.9621272,16.6904226 86.0982932,16.2910976 C86.4706431,16.1601714 86.836344,16.0104245 87.209525,15.8811348 C87.996613,15.6078263 88.796168,15.3672493 89.6040344,15.1618588 C90.4650936,14.9425573 91.3344642,14.7797178 92.2096528,14.6283343 C93.4679962,14.4114878 90.0453688,14.8484541 91.9661293,14.6798865 C92.4415404,14.6381538 92.9177826,14.6095137 93.3940249,14.5947845 C94.2592398,14.5669627 95.1252859,14.5841467 95.9880074,14.6463367 C96.7036174,14.6978889 98.2171202,15.1929538 95.9381391,14.5996942 C96.4467957,14.732257 96.9920224,14.7764446 97.5081593,14.8885502 C98.6011061,15.1266723 99.6774301,15.4392587 100.727989,15.8181266 C101.003096,15.9179578 101.27654,16.0210622 101.547491,16.1298947 C100.467843,15.6732894 100.291641,15.6045531 101.018056,15.9253224 C101.574088,16.2027224 102.137599,16.4613017 102.685319,16.7558858 C103.862211,17.390878 104.958483,18.1257016 106.063065,18.8727994 C106.704704,19.3441339 106.630733,19.2843988 105.841151,18.6935941 C106.129556,18.9210785 106.413806,19.151836 106.69473,19.3875032 C107.280683,19.8776583 107.846688,20.3882707 108.406044,20.9070659 C111.226927,23.5223176 116.115683,23.8676355 118.875893,20.9070659 C121.522237,18.0692396 121.887938,13.3910814 118.875893,10.5990793 C111.880202,4.11332058 102.848223,-0.420000532 93.0333109,0.0308767113 C86.7532301,0.318914442 80.5371471,2.26398742 75.2112131,5.5559641 C73.7982781,6.42907847 72.4194197,7.42166304 71.1544272,8.48789362 C68.201393,10.9763105 68.363465,16.2739135 71.1544272,18.7958803 C74.2977922,21.637798 78.4742619,21.4504098 81.6242759,18.7958803" id="Fill-11" fill="#3A3A3A"></path>
                                <path d="M41,43.5 C41,49.298897 36.298897,54 30.5,54 C24.701103,54 20,49.298897 20,43.5 C20,37.701103 24.701103,33 30.5,33 C36.298897,33 41,37.701103 41,43.5" id="Fill-13" fill="#C51414"></path>
                                <path d="M89,72 C89,76.4182349 85.4182349,80 81,80 C76.5817651,80 73,76.4182349 73,72 C73,67.5817651 76.5817651,64 81,64 C85.4182349,64 89,67.5817651 89,72" id="Fill-15" fill="#3A3A3A"></path>
                                <path d="M30,100.5 C30,103.537051 27.537888,106 24.5,106 C21.4629489,106 19,103.537051 19,100.5 C19,97.462112 21.4629489,95 24.5,95 C27.537888,95 30,97.462112 30,100.5" id="Fill-17" fill="#3A3A3A"></path>
                                <path d="M0.00567673729,54.3947087 C-0.122929089,64.4756856 1.89968981,76.0662377 9.54672585,83.3553298 C14.195743,87.786182 20.1157865,89.5047754 26.3197649,90.5183474 C29.1908482,90.9878087 32.0844793,91.39838 34.8712173,92.2560178 C35.1392853,92.3389615 36.6750392,92.6823484 36.7092785,92.8988315 C36.673369,92.6715657 35.1877212,92.2029339 36.5121942,92.852383 C36.8128312,93.0000228 37.1092927,93.1542981 37.4015787,93.3160383 C37.9377146,93.6121473 38.7719823,94.41836 39.3657404,94.556876 C39.2254431,94.5236985 38.0078633,93.4172296 38.9456837,94.2450077 C39.2847354,94.5444344 39.6246222,94.8363962 39.9486421,95.1515823 C40.4806026,95.6683215 40.9215368,96.272981 41.4459814,96.7897203 C40.2551248,95.6185553 40.7870853,95.8930989 41.0818765,96.3459715 C41.3223861,96.7142415 41.5795978,97.0708994 41.8109213,97.444146 C42.1967387,98.0678826 42.5524925,98.7098668 42.8773475,99.3659515 C42.9441557,99.5011497 43.1186922,100.03033 43.2548139,100.16304 C42.8030234,99.0715014 42.7253588,98.8898547 43.0218203,99.6189298 C43.0752669,99.7574457 43.1278783,99.8951323 43.1813249,100.032819 C43.7324927,101.492628 44.1642409,102.996397 44.5083032,104.516755 C44.6728184,105.244171 44.8164561,105.974905 44.9425566,106.709786 C44.9926628,107.002578 45.0344179,107.297857 45.0853592,107.590648 C45.1722099,108.171254 45.1363005,107.88344 44.9759608,106.727205 C45.0143755,107.019996 45.0502849,107.313616 45.083689,107.607237 C45.3241986,109.632722 45.7542765,111.333068 47.2624721,112.831031 C48.5527059,114.112511 50.6696914,115.077976 52.5227845,114.995032 C56.1629974,114.833292 60.4495799,111.717927 59.9618799,107.607237 C59.2111225,101.277804 57.8941655,94.8488378 54.3007183,89.4326144 C50.2771931,83.3669419 44.2744744,79.3250956 37.1936381,77.5559065 C34.2816347,76.8276609 31.2944721,76.4751501 28.3448891,75.9409927 C26.9686398,75.6921616 25.5982361,75.4060059 24.2512154,75.0319298 C23.5614205,74.8403299 22.8916681,74.6031109 22.2102242,74.3866279 C21.6039396,74.1950279 21.5379665,73.7869449 22.923402,74.6968373 C22.6194246,74.496943 22.2386177,74.371698 21.9171031,74.1975162 C21.4861901,73.9644445 21.0669685,73.7114662 20.6611086,73.4385814 C20.4665296,73.3083598 20.2719507,73.1408135 20.0690207,73.0213746 C21.7676197,74.022505 21.0594526,73.8333934 20.5951355,73.3879858 C20.2076478,73.016398 19.8059633,72.6655462 19.4368479,72.2748814 C19.2740029,72.101529 19.1136632,71.924859 18.958334,71.7457006 C18.4890063,71.2057371 18.2610232,70.4401668 19.2272371,72.1255827 C18.7194946,71.239744 18.0823112,70.4360196 17.5979516,69.5286156 C17.3449155,69.0533482 17.1595227,68.5042609 16.8747526,68.0489 C16.8998057,68.088713 17.5954463,69.8728319 17.1929268,68.792905 C17.0634859,68.4445415 16.9248588,68.1003251 16.8004285,67.7494733 C16.382042,66.5691845 16.0388148,65.3623537 15.7557149,64.1422519 C15.6137475,63.5284686 15.4868118,62.910538 15.374073,62.2909486 C15.3289774,62.042947 15.2863872,61.7941159 15.2454671,61.5452848 C15.2045471,61.2972831 15.1661324,61.048452 15.130223,60.799621 C15.1845046,61.2052156 15.2387863,61.6108103 15.293068,62.016405 C14.7669533,59.588643 14.8521337,56.8664309 14.8830325,54.3947087 C14.9323036,50.528703 11.4265422,46.8294142 7.44477219,47.0060842 C3.37197599,47.1877309 0.0582882116,50.2516711 0.00567673729,54.3947087" id="Fill-19" fill="#C51414"></path>
                            </g>
                        </g>
                    </g>
                </g>
            </g>
        </g>
    </g>
</svg>