<?xml version="1.0" encoding="UTF-8"?>
<svg width="127px" height="127px" viewBox="0 0 127 127" version="1.1" xmlns="http://www.w3.org/2000/svg" xmlns:xlink="http://www.w3.org/1999/xlink">
    <!-- Generator: Sketch 51.3 (57544) - http://www.bohemiancoding.com/sketch -->
    <title>Group 74</title>
    <desc>Created with Sketch.</desc>
    <defs>
        <polygon id="path-1" points="0.337688889 0.374222222 15.5163556 0.374222222 15.5163556 15.5526222 0.337688889 15.5526222"></polygon>
    </defs>
    <g id="home" stroke="none" stroke-width="1" fill="none" fill-rule="evenodd">
        <g transform="translate(-879.000000, -877.000000)" id="Left-10-Copy-2">
            <g transform="translate(751.000000, 961.000000) rotate(-360.000000) translate(-751.000000, -961.000000) translate(-209.000000, 779.000000)">
                <g id="Text" transform="translate(1050.000000, 75.000000)">
                    <g id="1">
                        <g id="Group-20">
                            <g id="Group-74" transform="translate(38.000000, 23.000000)">
                                <path d="M86,7.5 C86,11.6417779 82.6417779,15 78.5,15 C74.3573436,15 71,11.6417779 71,7.5 C71,3.35822207 74.3573436,0 78.5,0 C82.6417779,0 86,3.35822207 86,7.5" id="Fill-1" fill="#3A3A3A"></path>
                                <path d="M80,23.5 C80,26.5379159 77.5379159,29 74.5,29 C71.4620841,29 69,26.5379159 69,23.5 C69,20.4620841 71.4620841,18 74.5,18 C77.5379159,18 80,20.4620841 80,23.5" id="Fill-3" fill="#3A3A3A"></path>
                                <path d="M75,35.5 C75,37.4328613 73.4328613,39 71.5,39 C69.5671387,39 68,37.4328613 68,35.5 C68,33.5671387 69.5671387,32 71.5,32 C73.4328613,32 75,33.5671387 75,35.5" id="Fill-5" fill="#9F53A1"></path>
                                <path d="M60,34.5 C60,36.4328613 58.4328613,38 56.5,38 C54.5671387,38 53,36.4328613 53,34.5 C53,32.5671387 54.5671387,31 56.5,31 C58.4328613,31 60,32.5671387 60,34.5" id="Fill-7" fill="#3A3A3A"></path>
                                <path d="M47,42.5 C47,44.4328613 45.4328613,46 43.5,46 C41.5671387,46 40,44.4328613 40,42.5 C40,40.5671387 41.5671387,39 43.5,39 C45.4328613,39 47,40.5671387 47,42.5" id="Fill-9" fill="#3A3A3A"></path>
                                <path d="M39,54.5 C39,56.4328613 37.4328613,58 35.5,58 C33.5671387,58 32,56.4328613 32,54.5 C32,52.5671387 33.5671387,51 35.5,51 C37.4328613,51 39,52.5671387 39,54.5" id="Fill-11" fill="#3A3A3A"></path>
                                <path d="M39,69.5 C39,71.4328613 37.4328613,73 35.5,73 C33.5671387,73 32,71.4328613 32,69.5 C32,67.5671387 33.5671387,66 35.5,66 C37.4328613,66 39,67.5671387 39,69.5" id="Fill-13" fill="#3A3A3A"></path>
                                <path d="M46,83.5 C46,85.4328613 44.4328613,87 42.5,87 C40.5671387,87 39,85.4328613 39,83.5 C39,81.5671387 40.5671387,80 42.5,80 C44.4328613,80 46,81.5671387 46,83.5" id="Fill-15" fill="#3A3A3A"></path>
                                <path d="M58,90.5 C58,92.4328613 56.4328613,94 54.5,94 C52.5671387,94 51,92.4328613 51,90.5 C51,88.5671387 52.5671387,87 54.5,87 C56.4328613,87 58,88.5671387 58,90.5" id="Fill-17" fill="#3A3A3A"></path>
                                <path d="M73,91.5 C73,93.4328613 71.4328613,95 69.5,95 C67.5671387,95 66,93.4328613 66,91.5 C66,89.5671387 67.5671387,88 69.5,88 C71.4328613,88 73,89.5671387 73,91.5" id="Fill-19" fill="#3A3A3A"></path>
                                <path d="M87,84.5 C87,86.4328613 85.4328613,88 83.5,88 C81.5671387,88 80,86.4328613 80,84.5 C80,82.5671387 81.5671387,81 83.5,81 C85.4328613,81 87,82.5671387 87,84.5" id="Fill-21" fill="#3A3A3A"></path>
                                <path d="M94,71.5 C94,73.4328613 92.4328613,75 90.5,75 C88.5671387,75 87,73.4328613 87,71.5 C87,69.5671387 88.5671387,68 90.5,68 C92.4328613,68 94,69.5671387 94,71.5" id="Fill-23" fill="#3A3A3A"></path>
                                <path d="M95,56.5 C95,58.4328613 93.4328613,60 91.5,60 C89.5671387,60 88,58.4328613 88,56.5 C88,54.5671387 89.5671387,53 91.5,53 C93.4328613,53 95,54.5671387 95,56.5" id="Fill-25" fill="#3A3A3A"></path>
                                <path d="M87,43.5 C87,45.4328613 85.4328613,47 83.5,47 C81.5671387,47 80,45.4328613 80,43.5 C80,41.5671387 81.5671387,40 83.5,40 C85.4328613,40 87,41.5671387 87,43.5" id="Fill-27" fill="#3A3A3A"></path>
                                <path d="M99,34.5 C99,37.5379159 96.5379159,40 93.5,40 C90.4620841,40 88,37.5379159 88,34.5 C88,31.4620841 90.4620841,29 93.5,29 C96.5379159,29 99,31.4620841 99,34.5" id="Fill-29" fill="#3A3A3A"></path>
                                <path d="M109,53.5 C109,56.5379159 106.537916,59 103.5,59 C100.462084,59 98,56.5379159 98,53.5 C98,50.4620841 100.462084,48 103.5,48 C106.537916,48 109,50.4620841 109,53.5" id="Fill-31" fill="#9F53A1"></path>
                                <path d="M109,75.5 C109,78.5379159 106.537916,81 103.5,81 C100.462084,81 98,78.5379159 98,75.5 C98,72.4620841 100.462084,70 103.5,70 C106.537916,70 109,72.4620841 109,75.5" id="Fill-33" fill="#3A3A3A"></path>
                                <path d="M98,93.5 C98,96.5379159 95.5379159,99 92.5,99 C89.4620841,99 87,96.5379159 87,93.5 C87,90.4620841 89.4620841,88 92.5,88 C95.5379159,88 98,90.4620841 98,93.5" id="Fill-35" fill="#3A3A3A"></path>
                                <path d="M79,104.5 C79,107.537916 76.5379159,110 73.5,110 C70.4620841,110 68,107.537916 68,104.5 C68,101.462084 70.4620841,99 73.5,99 C76.5379159,99 79,101.462084 79,104.5" id="Fill-37" fill="#3A3A3A"></path>
                                <path d="M57,103.5 C57,106.537916 54.5379159,109 51.5,109 C48.4620841,109 46,106.537916 46,103.5 C46,100.462084 48.4620841,98 51.5,98 C54.5379159,98 57,100.462084 57,103.5" id="Fill-39" fill="#9F53A1"></path>
                                <path d="M39,92.5 C39,95.5379159 36.5379159,98 33.5,98 C30.4620841,98 28,95.5379159 28,92.5 C28,89.4620841 30.4620841,87 33.5,87 C36.5379159,87 39,89.4620841 39,92.5" id="Fill-41" fill="#3A3A3A"></path>
                                <path d="M29,73.5 C29,76.5379159 26.5379159,79 23.5,79 C20.4620841,79 18,76.5379159 18,73.5 C18,70.4620841 20.4620841,68 23.5,68 C26.5379159,68 29,70.4620841 29,73.5" id="Fill-43" fill="#3A3A3A"></path>
                                <path d="M29,51.5 C29,54.5379159 26.5379159,57 23.5,57 C20.4620841,57 18,54.5379159 18,51.5 C18,48.4620841 20.4620841,46 23.5,46 C26.5379159,46 29,48.4620841 29,51.5" id="Fill-45" fill="#9F53A1"></path>
                                <path d="M40,33.5 C40,36.5379159 37.5379159,39 34.5,39 C31.4620841,39 29,36.5379159 29,33.5 C29,30.4620841 31.4620841,28 34.5,28 C37.5379159,28 40,30.4620841 40,33.5" id="Fill-47" fill="#3A3A3A"></path>
                                <path d="M59,22.5 C59,25.5379159 56.5379159,28 53.5,28 C50.4620841,28 48,25.5379159 48,22.5 C48,19.4620841 50.4620841,17 53.5,17 C56.5379159,17 59,19.4620841 59,22.5" id="Fill-49" fill="#3A3A3A"></path>
                                <path d="M112,23.5 C112,27.6417779 108.641778,31 104.5,31 C100.357344,31 97,27.6417779 97,23.5 C97,19.3582221 100.357344,16 104.5,16 C108.641778,16 112,19.3582221 112,23.5" id="Fill-51" fill="#3A3A3A"></path>
                                <path d="M127,49.5 C127,53.6417779 123.641778,57 119.5,57 C115.357344,57 112,53.6417779 112,49.5 C112,45.3582221 115.357344,42 119.5,42 C123.641778,42 127,45.3582221 127,49.5" id="Fill-53" fill="#3A3A3A"></path>
                                <path d="M126,79.5 C126,83.6417779 122.641778,87 118.5,87 C114.357344,87 111,83.6417779 111,79.5 C111,75.3582221 114.357344,72 118.5,72 C122.641778,72 126,75.3582221 126,79.5" id="Fill-55" fill="#3A3A3A"></path>
                                <path d="M111,104.5 C111,108.641778 107.641778,112 103.5,112 C99.3573436,112 96,108.641778 96,104.5 C96,100.358222 99.3573436,97 103.5,97 C107.641778,97 111,100.358222 111,104.5" id="Fill-57" fill="#3A3A3A"></path>
                                <path d="M85,119.5 C85,123.641778 81.6417779,127 77.5,127 C73.3573436,127 70,123.641778 70,119.5 C70,115.358222 73.3573436,112 77.5,112 C81.6417779,112 85,115.358222 85,119.5" id="Fill-59" fill="#3A3A3A"></path>
                                <path d="M55,118.5 C55,122.641778 51.6417779,126 47.5,126 C43.3573436,126 40,122.641778 40,118.5 C40,114.358222 43.3573436,111 47.5,111 C51.6417779,111 55,114.358222 55,118.5" id="Fill-61" fill="#9F53A1"></path>
                                <path d="M29,103.5 C29,107.641778 25.6417779,111 21.5,111 C17.3573436,111 14,107.641778 14,103.5 C14,99.3582221 17.3573436,96 21.5,96 C25.6417779,96 29,99.3582221 29,103.5" id="Fill-63" fill="#3A3A3A"></path>
                                <path d="M15,77.5 C15,81.6417779 11.6417779,85 7.5,85 C3.35734364,85 0,81.6417779 0,77.5 C0,73.3582221 3.35734364,70 7.5,70 C11.6417779,70 15,73.3582221 15,77.5" id="Fill-65" fill="#3A3A3A"></path>
                                <path d="M15,47.5 C15,51.6417779 11.6417779,55 7.5,55 C3.35734364,55 0,51.6417779 0,47.5 C0,43.3582221 3.35734364,40 7.5,40 C11.6417779,40 15,43.3582221 15,47.5" id="Fill-67" fill="#3A3A3A"></path>
                                <path d="M31,21.5 C31,25.6417779 27.6417779,29 23.5,29 C19.3573436,29 16,25.6417779 16,21.5 C16,17.3582221 19.3573436,14 23.5,14 C27.6417779,14 31,17.3582221 31,21.5" id="Fill-69" fill="#3A3A3A"></path>
                                <g id="Group-73" transform="translate(41.000000, 0.000000)">
                                    <mask id="mask-2" fill="white">
                                        <use xlink:href="#path-1"></use>
                                    </mask>
                                    <g id="Clip-72"></g>
                                    <path d="M15.5163556,7.96328889 C15.5163556,12.1544 12.1181333,15.5526222 7.92702222,15.5526222 C3.73502222,15.5526222 0.337688889,12.1544 0.337688889,7.96328889 C0.337688889,3.77217778 3.73502222,0.373955556 7.92702222,0.373955556 C12.1181333,0.373955556 15.5163556,3.77217778 15.5163556,7.96328889" id="Fill-71" fill="#9F53A1" mask="url(#mask-2)"></path>
                                </g>
                            </g>
                        </g>
                    </g>
                </g>
            </g>
        </g>
    </g>
</svg>