<?xml version="1.0" encoding="UTF-8"?>
<svg width="138px" height="125px" viewBox="0 0 138 125" version="1.1" xmlns="http://www.w3.org/2000/svg" xmlns:xlink="http://www.w3.org/1999/xlink">
    <!-- Generator: Sketch 51.3 (57544) - http://www.bohemiancoding.com/sketch -->
    <title>Group 28</title>
    <desc>Created with Sketch.</desc>
    <defs>
        <polygon id="path-1" points="0.670645094 0.0530201342 28.4258072 0.0530201342 28.4258072 27.8634228 0.670645094 27.8634228"></polygon>
    </defs>
    <g id="home" stroke="none" stroke-width="1" fill="none" fill-rule="evenodd">
        <g transform="translate(-202.000000, -878.000000)" id="Left-10-Copy-2">
            <g transform="translate(751.000000, 961.000000) rotate(-360.000000) translate(-751.000000, -961.000000) translate(-209.000000, 779.000000)">
                <g id="Text" transform="translate(376.000000, 75.000000)">
                    <g id="1" transform="translate(-0.000000, -0.000000)">
                        <g id="Group-10">
                            <g id="Group-28" transform="translate(35.000000, 24.000000)">
                                <path d="M17.0454545,95.6439394 L66.2878788,70.0757576" id="Stroke-1" stroke="#3A3A3A" stroke-width="5"></path>
                                <path d="M62.5,71.969697 L105.113636,107.954545" id="Stroke-2" stroke="#3A3A3A" stroke-width="5"></path>
                                <path d="M28.4090909,50.1893939 L75.7575758,79.5454545" id="Stroke-3" stroke="#3A3A3A" stroke-width="5"></path>
                                <g id="Group-27" transform="translate(0.000000, 0.000000)">
                                    <g id="Group-6" transform="translate(108.843773, 0.000000)">
                                        <mask id="mask-2" fill="white">
                                            <use xlink:href="#path-1"></use>
                                        </mask>
                                        <g id="Clip-5"></g>
                                        <path d="M10.1693574,24.3097315 C5.81644378,21.8332215 2.6030407,17.8525168 3.53658537,12.6142617 C3.9753095,10.1528523 5.21947755,7.68557047 6.85966948,5.7988255 C7.65339177,4.88607383 8.97207594,6.21828859 8.18337722,7.12516779 C6.97269956,8.51778523 5.98389574,10.464094 5.514193,12.3139262 C4.32863313,16.9842282 7.22722653,20.4783557 11.1146238,22.6897651 C12.162873,23.2870805 11.218444,24.907047 10.1693574,24.3097315 M14.5482262,0.0530201342 C6.88395002,0.0530201342 0.670645094,6.27869128 0.670645094,13.9582215 C0.670645094,21.6377517 6.88395002,27.8634228 14.5482262,27.8634228 C22.2133396,27.8634228 28.4258072,21.6377517 28.4258072,13.9582215 C28.4258072,6.27869128 22.2133396,0.0530201342 14.5482262,0.0530201342" id="Fill-4" fill="#14A2C1" mask="url(#mask-2)"></path>
                                    </g>
                                    <path d="M119.957978,22.6901007 C116.071418,20.4786913 113.172825,16.9845638 114.358385,12.3142617 C114.828087,10.4635906 115.816054,8.51812081 117.027569,7.12466443 C117.81543,6.21862416 116.496746,4.8864094 115.703861,5.79832215 C114.062832,7.68506711 112.818664,10.1531879 112.37994,12.6145973 C111.447232,17.8528523 114.659798,21.833557 119.012712,24.3100671 C120.062636,24.9065436 121.007065,23.2865772 119.957978,22.6901007" id="Fill-7" fill="#FFFFFF"></path>
                                    <path d="M23.2581561,55.3349832 C20.4524985,53.7116611 18.3501392,51.1520973 18.9111032,47.746896 C19.1848872,46.0824664 20.0079135,44.4423658 21.1105847,43.1680369 C21.9009579,42.2536074 23.2196421,43.5858221 22.4342924,44.4943792 C21.8356517,45.1864933 21.1700301,46.4180369 20.8853618,47.4574664 C20.109222,50.2930369 21.8498851,52.3534396 24.2034224,53.7150168 C25.2474853,54.3198826 24.3030563,55.939849 23.2581561,55.3349832 M26.1827045,39.8089765 C21.3718098,39.8089765 17.4726909,43.7158557 17.4726909,48.5363255 C17.4726909,53.3559564 21.3718098,57.2636745 26.1827045,57.2636745 C30.992762,57.2636745 34.8927181,53.3559564 34.8927181,48.5363255 C34.8927181,43.7158557 30.992762,39.8089765 26.1827045,39.8089765" id="Fill-9" fill="#14A2C1"></path>
                                    <path d="M24.2030037,53.7153523 C21.8494665,52.3537752 20.1088034,50.2933725 20.8857804,47.457802 C21.1704488,46.4175336 21.835233,45.1868289 22.4338738,44.4947148 C23.2200607,43.5861577 21.9013766,42.253943 21.1101661,43.1683725 C20.0083322,44.4418624 19.1844685,46.0819631 18.9106846,47.7463926 C18.3505578,51.1524329 20.4520799,53.7111577 23.2577374,55.3353188 C24.3034749,55.9401846 25.2470667,54.3193792 24.2030037,53.7153523" id="Fill-11" fill="#FFFFFF"></path>
                                    <path d="M7.87794484,108.399916 C4.20153709,106.296728 1.46955839,102.935151 2.24234918,98.4963926 C2.60990623,96.3831376 3.66987712,94.276594 5.07563632,92.6574664 C5.86768408,91.7447148 7.18636826,93.0769295 6.39934405,93.9838087 C5.46663664,95.0584732 4.60760809,96.7052852 4.21828229,98.2019295 C3.21189602,102.072735 5.60310999,104.938507 8.82321115,106.77995 C9.86978589,107.378943 8.92619411,108.999748 7.87794484,108.399916 M11.6221706,87.9536074 C5.20373707,87.9536074 0.000167451959,93.1675336 0.000167451959,99.5987416 C0.000167451959,106.030789 5.20373707,111.244715 11.6221706,111.244715 C18.0414415,111.244715 23.2441738,106.030789 23.2441738,99.5987416 C23.2441738,93.1675336 18.0414415,87.9536074 11.6221706,87.9536074" id="Fill-13" fill="#3A3A3A"></path>
                                    <path d="M8.82287625,106.780285 C5.60361234,104.938842 3.21156111,102.07307 4.21878465,98.2022651 C4.60811045,96.7056208 5.467139,95.0579698 6.39900915,93.9841443 C7.18687061,93.0772651 5.86818644,91.7450503 5.07530141,92.657802 C3.66954222,94.2769295 2.61040858,96.3834732 2.24201427,98.4958893 C1.47006074,102.934648 4.20120219,106.296225 7.87760994,108.400252 C8.9258592,108.999245 9.87028825,107.379279 8.82287625,106.780285" id="Fill-15" fill="#FFFFFF"></path>
                                    <path d="M105.122572,122.746309 C102.004616,120.949329 99.6820578,118.117114 100.318375,114.341946 C100.62565,112.517282 101.530727,110.710235 102.742242,109.310906 C103.53429,108.397315 104.852974,109.72953 104.06595,110.637248 C103.311579,111.508054 102.620002,112.833557 102.295983,114.040772 C101.432768,117.249664 103.404515,119.591946 106.067838,121.126342 C107.112738,121.728691 106.169147,123.349497 105.122572,122.746309 M108.33765,105.474497 C102.956581,105.474497 98.5944573,109.845302 98.5944573,115.237081 C98.5944573,120.628859 102.956581,124.999664 108.33765,124.999664 C113.719556,124.999664 118.081679,120.628859 118.081679,115.237081 C118.081679,109.845302 113.719556,105.474497 108.33765,105.474497" id="Fill-17" fill="#14A2C1"></path>
                                    <path d="M106.06742,121.126594 C103.404096,119.592198 101.432349,117.249077 102.295564,114.041023 C102.620421,112.833809 103.311998,111.508305 104.066369,110.636661 C104.852556,109.728943 103.533871,108.396728 102.742661,109.310319 C101.530309,110.709648 100.625231,112.516695 100.317957,114.342198 C99.6824764,118.116527 102.004198,120.949581 105.122153,122.74656 C106.168728,123.348909 107.11232,121.728943 106.06742,121.126594" id="Fill-19" fill="#FFFFFF"></path>
                                    <path d="M65.1033958,59.2102349 C65.4935589,59.2689597 64.7224426,59.175 64.5332219,59.1615772 C63.9253713,59.1171141 63.3141716,59.107047 62.7046465,59.1213087 C60.8400689,59.1657718 58.987213,59.4694631 57.2214321,60.0760067 C51.1345534,62.1691275 48.3113134,67.8620805 47.7754671,73.9895973 C47.6716469,75.1842282 45.7986968,75.1917785 45.9033542,73.9895973 C46.4927851,67.2513423 49.5052459,61.0734899 56.0618273,58.5105705 C59.0131681,57.357047 62.4543058,56.9300336 65.6007281,57.4015101 C66.7904743,57.5793624 66.2822576,59.3864094 65.1033958,59.2102349 M61.9645088,54.4501678 C51.9986055,54.4501678 43.9198858,62.5449664 43.9198858,72.5307047 C43.9198858,82.515604 51.9986055,90.6104027 61.9645088,90.6104027 C71.9304122,90.6104027 80.0091319,82.515604 80.0091319,72.5307047 C80.0091319,62.5449664 71.9304122,54.4501678 61.9645088,54.4501678" id="Fill-21" fill="#3A3A3A"></path>
                                    <path d="M65.601063,57.4015101 C62.4538035,56.9300336 59.013503,57.357047 56.0621622,58.5105705 C49.5055808,61.0743289 46.49312,67.2513423 45.9036891,73.9895973 C45.7990317,75.1917785 47.6711446,75.1850671 47.775802,73.9895973 C48.3116483,67.8620805 51.1340511,62.1691275 57.2209298,60.0760067 C58.9875479,59.4694631 60.8404038,59.1657718 62.7041441,59.1213087 C63.3136693,59.107047 63.9248689,59.1171141 64.5327195,59.1615772 C64.7219402,59.175 65.4938938,59.2689597 65.1037307,59.2102349 C66.2817552,59.3864094 66.7899719,57.5793624 65.601063,57.4015101" id="Fill-23" fill="#FFFFFF"></path>
                                    <path d="M72.4243954,60.5984899 L114.2338,23.4994966" id="Stroke-25" stroke="#3A3A3A" stroke-width="5"></path>
                                </g>
                            </g>
                        </g>
                    </g>
                </g>
            </g>
        </g>
    </g>
</svg>