<?xml version="1.0" encoding="UTF-8"?>
<svg width="456px" height="341px" viewBox="0 0 456 341" version="1.1" xmlns="http://www.w3.org/2000/svg" xmlns:xlink="http://www.w3.org/1999/xlink">
    <!-- Generator: Sketch 51.3 (57544) - http://www.bohemiancoding.com/sketch -->
    <title>Group 23 Copy 4</title>
    <desc>Created with Sketch.</desc>
    <defs></defs>
    <g id="home" stroke="none" stroke-width="1" fill="none" fill-rule="evenodd">
        <g transform="translate(0.000000, -1088.000000)" id="Group-24" stroke="#B8BABB">
            <g transform="translate(-226.000000, 1089.000000)">
                <g id="Group-23-Copy-4">
                    <path d="M527.716587,189.863703 C534.761138,185.808435 534.761138,179.191565 527.716587,175.136297 L307.79905,48.7230541 C300.761747,44.6822176 295,47.9942604 295,56.0903651 L295,308.909635 C295,317.00574 300.761747,320.317782 307.79905,316.276946 L527.716587,189.863703 Z" id="Stroke-1"></path>
                    <path d="M242.407386,100.049065 C247.197538,97.2709852 247.197538,92.7230584 242.407386,89.9449787 L92.7133093,3.1862023 C87.9231567,0.408122598 84,2.67845928 84,8.23461868 L84,181.766678 C84,187.315584 87.9231567,189.593174 92.7133093,186.815095 L242.407386,100.049065 Z" id="Stroke-3"></path>
                    <path d="M678.26939,182.328813 C681.910203,180.218688 681.910203,176.771669 678.26939,174.661544 L564.618349,108.900806 C560.977536,106.790681 558,108.517804 558,112.7236 L558,244.266757 C558,248.47978 560.977536,250.206903 564.618349,248.104004 L678.26939,182.328813 Z" id="Stroke-7"></path>
                    <path d="M278.452196,277.171827 C280.515935,275.973686 280.515935,274.020354 278.452196,272.822213 L213.771411,235.512837 C211.693138,234.314696 210,235.287732 210,237.684013 L210,312.317288 C210,314.706308 211.693138,315.686605 213.771411,314.488465 L278.452196,277.171827 Z" id="Stroke-9"></path>
                    <path d="M654.869118,304.52133 C656.376961,303.688006 656.376961,302.317966 654.869118,301.47758 L607.743537,275.355006 C606.235695,274.521682 605,275.206703 605,276.87335 L605,329.118498 C605,330.799269 606.235695,331.477227 607.743537,330.643904 L654.869118,304.52133 Z" id="Stroke-11"></path>
                    <path d="M608.446705,42.1704535 C610.517765,40.979613 610.517765,39.019083 608.446705,37.8209813 L543.764242,0.512820426 C541.685915,-0.685281275 540,0.28772253 540,2.68392593 L540,77.3147701 C540,79.7037122 541.685915,80.6839773 543.764242,79.4931368 L608.446705,42.1704535 Z" id="Stroke-15"></path>
                    <path d="M263.26939,182.328813 C266.910203,180.218688 266.910203,176.771669 263.26939,174.661544 L149.618349,108.900806 C145.977536,106.790681 143,108.517804 143,112.7236 L143,244.266757 C143,248.47978 145.977536,250.206903 149.618349,248.104004 L263.26939,182.328813 Z" id="Stroke-17"></path>
                    <path d="M478.538014,68.9508344 C481.820662,67.0545317 481.820662,63.9521516 478.538014,62.055849 L375.969772,2.80547397 C372.687124,0.916436877 370,2.46399419 370,6.25659943 L370,124.742818 C370,128.535424 372.687124,130.090246 375.969772,128.186678 L478.538014,68.9508344 Z" id="Stroke-19"></path>
                    <path d="M528.785857,285.096689 C531.738048,283.393345 531.738048,280.610008 528.785857,278.906664 L436.38084,225.726082 C433.421378,224.022738 431,225.421655 431,228.821095 L431,335.17501 C431,338.581698 433.421378,339.973367 436.38084,338.277271 L528.785857,285.096689 Z" id="Stroke-21"></path>
                </g>
            </g>
        </g>
    </g>
</svg>