<?xml version="1.0" encoding="UTF-8"?>
<svg width="123px" height="125px" viewBox="0 0 123 125" version="1.1" xmlns="http://www.w3.org/2000/svg" xmlns:xlink="http://www.w3.org/1999/xlink">
    <!-- Generator: Sketch 51.3 (57544) - http://www.bohemiancoding.com/sketch -->
    <title>Group 26</title>
    <desc>Created with Sketch.</desc>
    <defs>
        <polygon id="path-1" points="0.1889125 0.546176471 13.8546625 0.546176471 13.8546625 14.3266765 0.1889125 14.3266765"></polygon>
    </defs>
    <g id="home" stroke="none" stroke-width="1" fill="none" fill-rule="evenodd">
        <g transform="translate(-433.000000, -877.000000)" id="Left-10-Copy-2">
            <g transform="translate(751.000000, 961.000000) rotate(-360.000000) translate(-751.000000, -961.000000) translate(-209.000000, 779.000000)">
                <g id="Text" transform="translate(601.000000, 75.000000)">
                    <g id="1">
                        <g id="Group-18">
                            <g id="Group-26" transform="translate(41.000000, 23.000000)">
                                <g id="Group-3" transform="translate(104.000000, 0.000000)">
                                    <mask id="mask-2" fill="white">
                                        <use xlink:href="#path-1"></use>
                                    </mask>
                                    <g id="Clip-2"></g>
                                    <path d="M7.0217875,0.847852941 C3.4194125,0.847852941 0.4881625,3.80373529 0.4881625,7.43638235 C0.4881625,11.0690294 3.4194125,14.0249118 7.0217875,14.0249118 C10.6241625,14.0249118 13.5554125,11.0690294 13.5554125,7.43638235 C13.5554125,3.80373529 10.6241625,0.847852941 7.0217875,0.847852941 M7.0217875,14.3266765 C3.2540375,14.3266765 0.1889125,11.2357941 0.1889125,7.43638235 C0.1889125,3.63697059 3.2540375,0.546088235 7.0217875,0.546088235 C10.7895375,0.546088235 13.8546625,3.63697059 13.8546625,7.43638235 C13.8546625,11.2357941 10.7895375,14.3266765 7.0217875,14.3266765" id="Fill-1" fill="#82BC48" mask="url(#mask-2)"></path>
                                </g>
                                <polygon id="Fill-4" fill="#3A3A3A" points="13.7937965 62 12 60.2762421 38.2062035 32 40 33.7237579"></polygon>
                                <polygon id="Fill-6" fill="#3A3A3A" points="82.900971 43 81 41.3809033 106.099029 12 108 13.6190967"></polygon>
                                <polygon id="Fill-8" fill="#3A3A3A" points="76.854575 48 43 30.1966366 44.145425 28 78 45.8033634"></polygon>
                                <path d="M15.4638727,124 L6.53612729,124 C2.94103174,124 0,121.072332 0,117.493572 L0,95.5064275 C0,91.9285659 2.94103174,89 6.53612729,89 L15.4638727,89 C19.0589683,89 22,91.9285659 22,95.5064275 L22,117.493572 C22,121.072332 19.0589683,124 15.4638727,124" id="Fill-10" fill="#3A3A3A"></path>
                                <path d="M84.4638727,124 L75.5361273,124 C71.9410317,124 69,121.089776 69,117.53234 L69,77.4676604 C69,73.910224 71.9410317,71 75.5361273,71 L84.4638727,71 C88.0589683,71 91,73.910224 91,77.4676604 L91,117.53234 C91,121.089776 88.0589683,124 84.4638727,124" id="Fill-12" fill="#3A3A3A"></path>
                                <path d="M49.4638727,125 L40.5361273,125 C36.9410317,125 34,122.016598 34,118.36971 L34,58.6302903 C34,54.9834019 36.9410317,52 40.5361273,52 L49.4638727,52 C53.0589683,52 56,54.9834019 56,58.6302903 L56,118.36971 C56,122.016598 53.0589683,125 49.4638727,125" id="Fill-14" fill="#3A3A3A"></path>
                                <path d="M116.463873,125 L107.536127,125 C103.941032,125 101,122.041657 101,118.425399 L101,37.5746006 C101,33.9583434 103.941032,31 107.536127,31 L116.463873,31 C120.058968,31 123,33.9583434 123,37.5746006 L123,118.425399 C123,122.041657 120.058968,125 116.463873,125" id="Fill-16" fill="#3A3A3A"></path>
                                <path d="M50,29 C50,32.8656716 47.0895522,36 43.5,36 C39.9104478,36 37,32.8656716 37,29 C37,25.1343284 39.9104478,22 43.5,22 C47.0895522,22 50,25.1343284 50,29" id="Fill-18" fill="#86A938"></path>
                                <path d="M118,8 C118,11.8656716 115.089552,15 111.5,15 C107.910448,15 105,11.8656716 105,8 C105,4.13432836 107.910448,1 111.5,1 C115.089552,1 118,4.13432836 118,8" id="Fill-20" fill="#86A938"></path>
                                <path d="M84,47 C84,50.8656716 81.0895522,54 77.5,54 C73.9104478,54 71,50.8656716 71,47 C71,43.1343284 73.9104478,40 77.5,40 C81.0895522,40 84,43.1343284 84,47" id="Fill-22" fill="#86A938"></path>
                                <path d="M16,65 C16,68.8656716 13.0895522,72 9.5,72 C5.91044776,72 3,68.8656716 3,65 C3,61.1343284 5.91044776,58 9.5,58 C13.0895522,58 16,61.1343284 16,65" id="Fill-24" fill="#86A938"></path>
                            </g>
                        </g>
                    </g>
                </g>
            </g>
        </g>
    </g>
</svg>