<?xml version="1.0" encoding="UTF-8"?>
<svg width="37px" height="37px" viewBox="0 0 37 37" version="1.1" xmlns="http://www.w3.org/2000/svg" xmlns:xlink="http://www.w3.org/1999/xlink">
    <!-- Generator: Sketch 51.3 (57544) - http://www.bohemiancoding.com/sketch -->
    <title>commerce-and-shopping-hover</title>
    <desc>Created with Sketch.</desc>
    <defs></defs>
    <g id="home" stroke="none" stroke-width="1" fill="none" fill-rule="evenodd">
        <g transform="translate(-1225.000000, -86.000000)" fill-rule="nonzero" id="commerce-and-shopping-hover">
            <g transform="translate(1225.000000, 86.000000)">
                <circle id="Oval-2" fill="#AD2031" cx="18.5" cy="18.5" r="18.5"></circle>
                <g id="commerce-and-shopping-copy" transform="translate(8.000000, 12.000000)" fill="#FFFFFF">
                    <path d="M5.83592113,10.3703929 L15.3633755,10.3703929 C15.5993062,10.3703929 15.8062606,10.2169995 15.8701185,9.99420099 L17.9796249,2.73488547 C18.0249434,2.57838639 17.9939071,2.41027476 17.8940691,2.28024147 C17.7940938,2.15061325 17.6386377,2.07405157 17.4727446,2.07405157 L4.61850207,2.07405157 L4.24153475,0.406168433 C4.18797654,0.168651711 3.97374374,0 3.72655205,0 L0.527342271,0 C0.235930752,0 0,0.231980525 0,0.518512893 C0,0.805180316 0.235930752,1.03702579 0.527342271,1.03702579 L3.30330496,1.03702579 L5.20764225,9.46286029 C4.64734108,9.70240246 4.25389432,10.2507568 4.25389432,10.8889058 C4.25389432,11.7466125 4.96360913,12.4444444 5.83592113,12.4444444 L15.3633755,12.4444444 C15.6549244,12.4444444 15.8907178,12.212599 15.8907178,11.9259316 C15.8907178,11.6393992 15.6549244,11.4074187 15.3633755,11.4074187 L5.83592113,11.4074187 C5.54547089,11.4074187 5.30857886,11.1750331 5.30857886,10.8889058 C5.30857886,10.6027785 5.54547089,10.3703929 5.83592113,10.3703929 Z" id="Path"></path>
                    <path d="M5.4,14.2222222 C5.4,15.2026234 6.20746496,16 7.20007812,16 C8.19253504,16 9,15.2026234 9,14.2222222 C9,13.2419753 8.19253504,12.4444444 7.20007812,12.4444444 C6.20746496,12.4444444 5.4,13.2419753 5.4,14.2222222 Z" id="Path"></path>
                    <path d="M12.6,14.2222222 C12.6,15.2026234 13.4075,16 14.4,16 C15.3926562,16 16.2,15.2026234 16.2,14.2222222 C16.2,13.2419753 15.3926562,12.4444444 14.4,12.4444444 C13.4075,12.4444444 12.6,13.2419753 12.6,14.2222222 Z" id="Path"></path>
                </g>
            </g>
        </g>
    </g>
</svg>