<?xml version="1.0" encoding="UTF-8"?>
<svg width="159px" height="55px" viewBox="0 0 159 55" version="1.1" xmlns="http://www.w3.org/2000/svg" xmlns:xlink="http://www.w3.org/1999/xlink">
    <!-- Generator: Sketch 51.3 (57544) - http://www.bohemiancoding.com/sketch -->
    <title>Group 20</title>
    <desc>Created with Sketch.</desc>
    <defs>
        <polygon id="path-1" points="3.69787864e-05 0.0005 158.881 0.0005 158.881 54.4954871 3.69787864e-05 54.4954871"></polygon>
    </defs>
    <g id="home" stroke="none" stroke-width="1" fill="none" fill-rule="evenodd">
        <g id="Group-20">
            <mask id="mask-2" fill="white">
                <use xlink:href="#path-1"></use>
            </mask>
            <g id="Clip-2"></g>
            <path d="M58.526,29.2085 L65.671,29.2085 L65.671,27.1545 L58.526,27.1545 L58.526,29.2085 Z M58.526,25.5115 L65.671,25.5115 L65.671,23.5175 L58.526,23.5175 L58.526,25.5115 Z M63.069,20.1085 C62.908,20.7175 62.73,21.2955 62.551,21.8435 L67.724,21.8435 L67.724,31.7955 L65.671,31.7955 L65.671,30.8825 L58.527,30.8825 L58.527,31.7955 L56.571,31.7955 L56.571,21.8435 L60.515,21.8435 C60.628,21.2955 60.725,20.7025 60.806,20.1085 L54.954,20.1085 L54.954,18.3435 L69.164,18.3435 L69.164,20.1085 L63.069,20.1085 Z" id="Fill-1" fill="#AD2031" mask="url(#mask-2)"></path>
            <path d="M83.5063,27.9708 C84.0563,27.2248 84.7833,25.9918 85.1713,25.0638 L86.8363,25.9618 C86.2223,26.9668 85.5113,28.0468 84.9453,28.7928 L83.5063,27.9708 Z M86.3843,24.2428 L74.3903,24.2428 L74.3903,22.6448 L84.5413,22.6448 L84.5413,21.9288 L75.1163,21.9288 L75.1163,20.6818 L84.5413,20.6818 L84.5413,19.9508 L74.3903,19.9508 L74.3903,18.3378 L86.3843,18.3378 L86.3843,24.2428 Z M77.3313,25.7188 C76.9593,26.8298 76.3943,28.0468 75.5693,28.8528 L73.9533,27.9558 C74.7293,27.2558 75.3433,26.1598 75.6833,25.1248 L77.3313,25.7188 Z M81.6483,24.5468 C81.5833,25.1098 81.5193,25.6428 81.4213,26.1598 C82.3423,28.6708 84.3473,30.0398 88.2103,30.4058 C87.8223,30.8018 87.3213,31.5468 87.1113,32.0648 C83.8463,31.5618 81.9543,30.4058 80.7263,28.3668 C79.8053,30.1778 77.9623,31.4708 73.9853,32.2318 C73.8083,31.7598 73.3553,31.0298 72.9673,30.6638 C78.8193,29.7058 79.3043,27.6818 79.6103,24.5468 L81.6483,24.5468 Z" id="Fill-3" fill="#AD2031" mask="url(#mask-2)"></path>
            <path d="M98.4048,26.3424 C98.2268,26.7234 98.0498,27.1034 97.8868,27.4234 C98.2428,27.5904 98.6148,27.7584 98.9698,27.9254 C99.3588,27.4534 99.6658,26.9364 99.9248,26.3424 L98.4048,26.3424 Z M100.6518,30.5274 C100.2958,30.2684 99.8278,30.0094 99.3418,29.7204 C98.4858,30.4664 97.4678,31.0454 96.3198,31.4554 C96.1578,31.0604 95.7378,30.4974 95.4298,30.1924 C96.3358,29.9334 97.1758,29.5084 97.8868,28.9604 C97.1758,28.6104 96.4488,28.3054 95.7858,28.0474 C96.0768,27.5594 96.3838,26.9814 96.6758,26.3424 L95.8018,26.3424 L95.8018,25.0034 L97.2728,25.0034 C97.4348,24.5924 97.5958,24.1964 97.7258,23.8014 L95.9638,23.8014 L95.9638,22.4164 L101.4598,22.4164 L101.4598,23.8014 L99.3898,23.8014 C99.2608,24.1964 99.1158,24.5924 98.9698,25.0034 L100.6028,25.0034 L100.8778,24.9574 L101.8808,25.2774 C101.5558,26.6164 101.0398,27.7124 100.3438,28.6254 C100.8458,28.8844 101.2818,29.1424 101.6378,29.3704 L100.6518,30.5274 Z M107.0368,22.9334 C106.5508,25.2774 105.8238,27.2854 104.7418,28.9454 C105.0318,29.8274 105.3718,30.3604 105.7268,30.3604 C106.0178,30.3604 106.1638,29.5994 106.2128,27.8034 C106.6158,28.1994 107.2308,28.5794 107.6998,28.7774 C107.4408,31.4254 106.8908,32.1104 105.5168,32.1104 C104.6608,32.1104 104.0138,31.5164 103.4968,30.5424 C102.9148,31.1664 102.2678,31.6994 101.5408,32.1714 C101.2818,31.8364 100.6028,31.1964 100.2158,30.9074 C101.2338,30.3294 102.0908,29.5844 102.7858,28.7014 C102.2678,26.8144 101.9938,24.2884 101.8638,21.5944 L95.4628,21.5944 L95.4628,24.3644 C95.4628,26.6164 95.2198,29.9644 93.7818,32.0334 C93.4908,31.7294 92.7468,31.1514 92.3428,30.9684 C93.5718,29.0664 93.6848,26.3584 93.6848,24.3644 L93.6848,19.9514 L101.7998,19.9514 C101.7828,19.2664 101.7668,18.5814 101.7668,17.8974 L103.6578,17.8974 C103.6418,18.5964 103.6418,19.2664 103.6578,19.9514 L105.7268,19.9514 C105.2428,19.5714 104.5318,19.1294 103.9658,18.8094 L105.0158,17.7754 C105.7438,18.1254 106.6648,18.6884 107.1498,19.0994 L106.2938,19.9514 L107.3918,19.9514 L107.3918,21.5944 L103.7068,21.5944 C103.7878,23.3604 103.9498,25.0034 104.1758,26.3884 C104.6608,25.2924 105.0158,24.0444 105.2588,22.6904 L107.0368,22.9334 Z" id="Fill-4" fill="#AD2031" mask="url(#mask-2)"></path>
            <path d="M121.8833,22.1119 C121.4303,21.4579 120.3793,20.4839 119.4743,19.8289 L120.7363,18.7949 C121.6093,19.4189 122.7393,20.3169 123.2253,20.9859 L121.8833,22.1119 Z M121.4633,26.1299 C120.9613,25.4599 119.8303,24.4859 118.8933,23.8009 L120.1213,22.7659 C121.0423,23.3749 122.2383,24.3189 122.7733,24.9729 L121.4633,26.1299 Z M125.5203,28.2449 L125.5203,32.0799 L123.6293,32.0799 L123.6293,28.5649 L118.7473,29.3559 L118.4403,27.6359 L123.6293,26.7989 L123.6293,17.8819 L125.5203,17.8819 L125.5203,26.4949 L127.1203,26.2359 L127.4283,27.9249 L125.5203,28.2449 Z M117.5513,27.5909 C117.3573,27.1639 116.9693,26.5249 116.5813,25.9169 L116.5813,32.0949 L114.7223,32.0949 L114.7223,26.6159 C114.1893,27.7879 113.5913,28.8689 112.9603,29.6299 C112.7823,29.1119 112.3623,28.3659 112.0713,27.9099 C112.9763,26.9359 113.8813,25.3079 114.4633,23.8319 L112.2813,23.8319 L112.2813,22.1419 L114.7223,22.1419 L114.7223,20.4229 C114.0913,20.5139 113.4933,20.6059 112.8963,20.6669 C112.8303,20.2559 112.5883,19.6619 112.3783,19.2669 C114.2213,19.0079 116.2413,18.5359 117.5833,18.0189 L118.6663,19.4949 C118.0363,19.7229 117.3243,19.9049 116.5813,20.0579 L116.5813,22.1419 L118.7153,22.1419 L118.7153,23.8319 L116.5813,23.8319 L116.5813,23.9529 C117.0503,24.3799 118.3753,25.8099 118.6823,26.1599 L117.5513,27.5909 Z" id="Fill-5" fill="#AD2031" mask="url(#mask-2)"></path>
            <path d="M139.9175,25.1705 C140.3695,26.1755 141.0165,27.0875 141.8245,27.8645 C142.6655,27.1035 143.3605,26.2055 143.8455,25.1705 L139.9175,25.1705 Z M146.2855,23.9535 C145.6725,26.0685 144.6375,27.7275 143.2795,29.0055 C144.3295,29.7055 145.5745,30.2075 147.0135,30.5425 C146.6095,30.9075 146.0605,31.6385 145.7855,32.1095 C144.2175,31.6685 142.8755,31.0455 141.7605,30.1925 C140.4995,31.0145 139.0765,31.6235 137.5095,32.0645 C137.2985,31.5775 136.8295,30.8165 136.4745,30.4205 C137.8965,30.1015 139.2055,29.6145 140.3375,28.9295 C139.3835,27.9095 138.6245,26.7075 138.0425,25.3075 L138.5265,25.1705 L137.6865,25.1705 L137.6865,23.5425 L140.8705,23.5425 L140.8705,21.7165 L137.3965,21.7165 L137.3965,20.0425 L140.8705,20.0425 L140.8705,17.8665 L142.7785,17.8665 L142.7785,20.0425 L146.3985,20.0425 L146.3985,21.7165 L142.7785,21.7165 L142.7785,23.5425 L144.7185,23.5425 L145.0575,23.4665 L146.2855,23.9535 Z M137.3305,26.0075 C136.7655,26.1595 136.1835,26.3125 135.6015,26.4495 L135.6015,30.0865 C135.6015,30.9685 135.4235,31.3945 134.8735,31.6835 C134.3405,31.9575 133.5635,32.0035 132.4335,32.0035 C132.3525,31.5465 132.1095,30.8315 131.8835,30.3595 C132.5135,30.3755 133.1765,30.3755 133.3875,30.3755 C133.6295,30.3755 133.6935,30.2995 133.6935,30.0705 L133.6935,26.9365 L132.1265,27.3015 L131.6245,25.5815 C132.2235,25.4755 132.9185,25.3225 133.6935,25.1405 L133.6935,22.4465 L131.8345,22.4465 L131.8345,20.7735 L133.6935,20.7735 L133.6935,17.8815 L135.6015,17.8815 L135.6015,20.7735 L137.1865,20.7735 L137.1865,22.4465 L135.6015,22.4465 L135.6015,24.6985 L137.0885,24.3495 L137.3305,26.0075 Z" id="Fill-6" fill="#AD2031" mask="url(#mask-2)"></path>
            <path d="M46.5347,0.0045 C46.0157,-0.1765 44.3697,5.1765 38.8497,11.9725 C38.5857,12.2985 38.4057,12.5085 38.3207,12.6135 C31.1057,22.2455 20.7967,28.1265 19.4557,28.6725 C18.0557,29.2395 17.8117,29.9515 18.9627,30.4495 C27.5367,34.0265 27.3097,41.8605 25.8297,45.8345 C24.9507,48.3965 22.5257,48.9915 21.0207,49.1325 C19.2757,49.2995 19.5677,48.3555 19.5677,48.3555 C20.3657,46.5085 20.2057,44.2915 20.1467,43.7195 C20.1387,43.6355 20.1857,43.5585 20.2647,43.5285 C20.7337,43.3485 22.2817,42.7385 22.5167,42.4325 C22.9437,41.8755 23.0817,37.4555 19.5907,35.4975 C13.5307,32.0945 9.7087,36.6405 9.0267,37.5495 C8.9647,37.6335 8.8447,37.6495 8.7627,37.5845 C3.6287,33.5525 5.1267,26.5945 5.1747,26.3795 C5.1747,26.3755 5.1757,26.3715 5.1767,26.3675 C5.3887,24.8105 6.0717,23.2125 6.4437,22.4285 C6.5207,22.2665 6.3477,22.0975 6.1897,22.1825 C5.5757,22.5115 4.9637,22.9245 4.3837,23.4415 C0.7877,26.6515 0.8417,31.7255 0.9307,33.2615 C0.9387,33.3965 0.8067,33.4915 0.6807,33.4455 C0.5817,33.4095 0.4607,33.3545 0.3247,33.2695 C0.2067,33.1955 0.0507,33.2705 0.0397,33.4085 C-0.1843,36.2285 0.6007,39.0875 0.8897,40.0215 C0.9327,40.1615 0.8077,40.2945 0.6667,40.2565 C0.5687,40.2315 0.4547,40.1985 0.3277,40.1605 C0.2047,40.1235 0.0797,40.2185 0.0857,40.3465 C0.2217,43.2265 1.2667,45.1325 1.7847,45.9105 C1.8807,46.0535 1.7487,46.2365 1.5817,46.1935 C1.4887,46.1695 1.4017,46.1435 1.3057,46.1095 C1.1677,46.0605 1.0277,46.1845 1.0617,46.3275 C1.4597,48.0065 2.9957,49.4425 3.7577,50.0695 C3.8947,50.1835 3.8087,50.4085 3.6307,50.3995 C3.6267,50.3995 3.6217,50.3985 3.6177,50.3985 C3.4607,50.3885 3.3587,50.5635 3.4517,50.6915 C4.1217,51.6185 5.6877,52.8585 7.0697,53.3795 C11.0777,54.9475 14.1267,53.9735 14.5257,53.8325 C14.5567,53.8205 14.5897,53.8185 14.6227,53.8255 C15.2597,53.9555 18.4787,54.8475 21.7277,54.3415 C33.4067,52.5305 36.5537,43.9995 36.9017,42.9495 C37.2557,41.9025 36.9697,41.8895 36.6247,42.3305 C36.1587,42.9215 35.4017,43.2705 34.8237,43.4625 C34.6347,43.5255 34.4917,43.2845 34.6387,43.1505 C37.4967,40.5505 39.1017,36.3755 39.3857,35.3335 C39.7927,33.8345 39.0727,34.4765 38.8417,34.7315 C37.8647,35.7975 36.8207,36.4885 36.1137,36.8815 C35.9337,36.9825 35.7487,36.7555 35.8827,36.5985 C38.4697,33.5735 39.6677,30.6385 40.0557,28.9715 C40.5057,27.0625 39.7057,27.9745 39.7057,27.9745 C38.7667,29.3205 37.7257,30.1585 36.9837,30.6395 C36.8027,30.7565 36.6007,30.5215 36.7447,30.3595 C41.9047,24.5585 42.8477,17.8835 43.0077,17.0545 C43.3217,15.3875 42.2977,16.8925 41.7827,17.6585 C40.6417,19.3525 39.1737,20.7145 38.1947,21.5245 C38.0267,21.6635 37.7987,21.4485 37.9267,21.2725 C40.5917,17.5925 43.3107,12.8725 45.1907,7.0575 C46.4137,3.2765 46.9237,0.1395 46.5347,0.0045 M13.5147,51.4805 C12.8407,51.7495 8.7787,46.6895 9.3797,43.0345 C9.3797,43.0345 11.7357,44.1285 13.1887,44.2395 C13.1887,44.2395 13.8447,47.2055 16.4497,49.3575 C16.4497,49.3575 15.4117,50.7195 13.5147,51.4805 M18.1247,42.2395 C17.3317,42.4505 15.5837,42.4995 15.2197,41.4735 C15.2177,41.4715 17.0607,38.4925 19.3267,40.9575 C19.3267,40.9575 19.8177,41.7825 18.1247,42.2395" id="Fill-7" fill="#AD2031" mask="url(#mask-2)"></path>
            <path d="M53.8569,39.7545 L52.2999,46.9915 C52.2749,47.0425 52.2539,47.1265 52.2399,47.2435 C51.9069,48.7925 51.3829,49.8365 50.6679,50.3755 C49.9529,50.9145 48.9149,51.1845 47.5549,51.1845 C47.0079,51.1845 46.5069,51.1595 46.0529,51.1105 C45.5979,51.0635 45.1389,50.9395 44.6759,50.7395 C44.2139,50.5405 43.8339,50.2195 43.5349,49.7775 C43.2359,49.3355 43.0859,48.7465 43.0859,48.0105 C43.0859,47.8005 43.1119,47.5375 43.1629,47.2205 L46.4439,46.8455 L46.4439,46.9755 C46.4229,47.1185 46.4139,47.2645 46.4139,47.4125 L46.4139,47.6505 C46.4139,48.2685 46.7529,48.5775 47.4329,48.5775 C47.7589,48.5775 48.0149,48.4965 48.1999,48.3325 C48.3829,48.1695 48.5199,47.9595 48.6099,47.7035 C48.6989,47.4485 48.7929,47.0855 48.8889,46.6155 L50.3689,39.7545 L53.8569,39.7545 Z" id="Fill-8" fill="#AD2031" mask="url(#mask-2)"></path>
            <path d="M57.7358,44.5226 C58.1788,44.3186 58.5048,44.1056 58.7138,43.8846 C58.9228,43.6636 59.0258,43.4606 59.0258,43.2786 C59.0258,43.1226 58.9538,42.9846 58.8078,42.8676 C58.6628,42.7506 58.4788,42.6916 58.2568,42.6916 C57.9788,42.6916 57.7558,42.7786 57.5868,42.9526 C57.4168,43.1266 57.3328,43.3366 57.3328,43.5846 C57.3328,43.8066 57.4658,44.1196 57.7358,44.5226 Z M58.1988,48.8296 C57.5038,48.1086 56.9628,47.4726 56.5768,46.9206 C55.7988,47.3246 55.4098,47.7786 55.4098,48.2826 C55.4098,48.4516 55.4548,48.6296 55.5438,48.8166 C55.6318,49.0036 55.7658,49.1516 55.9448,49.2626 C56.1228,49.3736 56.3408,49.4286 56.6018,49.4286 C57.0848,49.4286 57.6168,49.2296 58.1988,48.8296 Z M62.3098,47.7226 C62.0318,48.1086 61.7128,48.4956 61.3518,48.8816 C61.4428,48.9596 61.7148,49.2096 62.1668,49.6306 L60.6808,51.1556 C60.4948,51.0216 60.2378,50.8106 59.9128,50.5226 C59.8118,50.4286 59.7318,50.3586 59.6718,50.3146 C59.1238,50.6576 58.6288,50.8846 58.1858,50.9926 C57.7428,51.1016 57.2148,51.1556 56.6018,51.1556 C55.2908,51.1556 54.3328,50.8906 53.7288,50.3606 C53.1258,49.8306 52.8238,49.2056 52.8238,48.4846 C52.8238,47.1066 53.7358,46.0806 55.5598,45.4026 C55.2128,44.7946 55.0388,44.2216 55.0388,43.6826 C55.0388,42.9136 55.3398,42.3206 55.9408,41.9036 C56.5428,41.4866 57.2958,41.2786 58.1988,41.2786 C59.1018,41.2786 59.8288,41.4786 60.3788,41.8776 C60.9268,42.2776 61.2028,42.7726 61.2028,43.3636 C61.2028,43.7366 61.1048,44.0696 60.9088,44.3596 C60.7138,44.6506 60.4638,44.9056 60.1598,45.1226 C59.8558,45.3396 59.4728,45.5696 59.0128,45.8136 C58.9868,45.8216 58.8848,45.8766 58.7068,45.9756 L59.8988,47.4286 C60.0818,47.2026 60.2948,46.9556 60.5378,46.6866 C60.6118,46.6036 60.6598,46.5446 60.6808,46.5096 L62.3098,47.7226 Z" id="Fill-9" fill="#AD2031" mask="url(#mask-2)"></path>
            <polygon id="Fill-10" fill="#AD2031" mask="url(#mask-2)" points="76.3306 39.7545 71.4626 43.9935 74.9046 50.9925 71.1476 50.9925 69.0326 46.1245 66.5796 48.2335 66.0046 50.9925 62.5016 50.9925 64.9006 39.7545 68.4036 39.7545 67.4916 43.9555 67.5226 43.9935 71.7626 39.7545"></polygon>
            <path d="M91.3413,42.8741 L88.0913,43.0511 C88.0193,42.0741 87.4753,41.5861 86.4583,41.5861 C86.0443,41.5861 85.7263,41.6741 85.5033,41.8511 C85.2813,42.0271 85.1703,42.2381 85.1703,42.4831 C85.1703,42.6621 85.2593,42.8321 85.4393,42.9931 C85.6173,43.1541 86.0413,43.3601 86.7113,43.6101 C87.5593,43.9371 88.2493,44.2461 88.7803,44.5381 C89.3133,44.8291 89.7473,45.2071 90.0843,45.6721 C90.4213,46.1371 90.5903,46.7171 90.5903,47.4131 C90.5903,48.0671 90.4073,48.6761 90.0423,49.2411 C89.6763,49.8051 89.1503,50.2711 88.4633,50.6361 C87.7763,51.0011 86.7983,51.1841 85.5303,51.1841 C83.7463,51.1841 82.4823,50.8421 81.7363,50.1571 C80.9893,49.4721 80.6163,48.5931 80.6163,47.5201 L80.6163,47.2591 L83.8823,47.0371 C83.8823,47.7371 84.0363,48.2321 84.3463,48.5201 C84.6553,48.8091 85.0833,48.9541 85.6303,48.9541 C86.1823,48.9541 86.6033,48.8331 86.8913,48.5931 C87.1803,48.3531 87.3243,48.0801 87.3243,47.7731 C87.3243,47.5421 87.2333,47.3311 87.0483,47.1371 C86.8643,46.9421 86.4123,46.7151 85.6923,46.4541 C84.0403,45.8611 82.9963,45.3141 82.5603,44.8141 C82.1223,44.3131 81.9043,43.7101 81.9043,43.0041 C81.9043,42.3601 82.0843,41.7731 82.4453,41.2411 C82.8053,40.7091 83.3293,40.2971 84.0173,40.0031 C84.7033,39.7091 85.5283,39.5621 86.4883,39.5621 C89.5293,39.5621 91.1473,40.6661 91.3413,42.8741" id="Fill-11" fill="#AD2031" mask="url(#mask-2)"></path>
            <path d="M101.3266,45.6881 L98.5056,45.8411 C98.3726,45.1311 97.8936,44.7751 97.0716,44.7751 C96.3096,44.7751 95.7246,45.0841 95.3156,45.6991 C94.9066,46.3151 94.7026,46.9861 94.7026,47.7111 C94.7026,48.1511 94.8476,48.4881 95.1396,48.7231 C95.4306,48.9591 95.7456,49.0761 96.0826,49.0761 C96.9156,49.0761 97.5336,48.6161 97.9376,47.6961 L100.8586,48.0111 C100.1386,50.1261 98.5056,51.1841 95.9596,51.1841 C93.0926,51.1841 91.6596,50.0111 91.6596,47.6661 C91.6596,46.3011 92.1326,45.1281 93.0776,44.1461 C94.0226,43.1661 95.3536,42.6751 97.0716,42.6751 C98.3036,42.6751 99.2876,42.9271 100.0226,43.4301 C100.7596,43.9331 101.1936,44.6861 101.3266,45.6881" id="Fill-12" fill="#AD2031" mask="url(#mask-2)"></path>
            <path d="M106.9692,39.7545 L106.5252,41.9005 L103.4052,41.9005 L103.8422,39.7545 L106.9692,39.7545 Z M106.3252,42.8585 L104.5772,50.9925 L101.4432,50.9925 L103.1832,42.8585 L106.3252,42.8585 Z" id="Fill-13" fill="#AD2031" mask="url(#mask-2)"></path>
            <path d="M113.0405,46.2169 C113.0755,46.1049 113.0945,45.9479 113.0945,45.7489 C113.0945,45.3349 112.9705,45.0219 112.7225,44.8099 C112.4745,44.5979 112.1685,44.4919 111.8065,44.4919 C111.4225,44.4919 111.0695,44.6359 110.7475,44.9249 C110.4265,45.2139 110.1815,45.6449 110.0125,46.2169 L113.0405,46.2169 Z M115.6465,48.9079 C115.1915,49.7159 114.5975,50.2969 113.8645,50.6509 C113.1315,51.0069 112.2125,51.1839 111.1075,51.1839 C109.5035,51.1839 108.3625,50.8229 107.6865,50.0989 C107.0085,49.3769 106.6695,48.4909 106.6695,47.4429 C106.6695,46.7169 106.8275,46.0339 107.1445,45.3929 C107.4615,44.7509 107.8915,44.2139 108.4335,43.7789 C108.9745,43.3439 109.5085,43.0519 110.0355,42.9019 C110.5615,42.7499 111.1775,42.6749 111.8825,42.6749 C113.4005,42.6749 114.4895,43.0049 115.1485,43.6639 C115.8085,44.3229 116.1375,45.1339 116.1375,46.0939 C116.1375,46.4109 116.0685,46.9549 115.9305,47.7269 L109.7275,47.7269 C109.8155,48.8159 110.3035,49.3599 111.1925,49.3599 C111.7955,49.3599 112.2755,49.1139 112.6345,48.6239 L115.6465,48.9079 Z" id="Fill-14" fill="#AD2031" mask="url(#mask-2)"></path>
            <path d="M120.8618,44.1163 C121.7198,43.1553 122.7678,42.6753 124.0048,42.6753 C124.7408,42.6753 125.2928,42.8633 125.6608,43.2383 C126.0288,43.6143 126.2128,44.0753 126.2128,44.6223 C126.2128,44.9493 126.1108,45.5933 125.9068,46.5543 L124.9638,50.9923 L121.8358,50.9923 L122.6398,47.2133 C122.8348,46.2883 122.9318,45.7593 122.9318,45.6263 C122.9318,45.1773 122.7268,44.9513 122.3178,44.9513 C121.8578,44.9513 121.4578,45.1673 121.1148,45.5993 C120.7718,46.0313 120.5138,46.6543 120.3408,47.4663 L119.5738,50.9923 L116.4298,50.9923 L118.1778,42.8593 L121.0988,42.8593 L120.8318,44.0853 L120.8618,44.1163 Z" id="Fill-15" fill="#AD2031" mask="url(#mask-2)"></path>
            <path d="M133.5181,42.859 L133.0421,45.09 L131.4101,45.09 L130.8111,47.964 C130.7701,48.088 130.7501,48.217 130.7501,48.356 C130.7501,48.723 130.9931,48.908 131.4781,48.908 C131.6311,48.908 131.9541,48.859 132.4451,48.762 L131.9761,50.993 C131.0361,51.121 130.3461,51.184 129.9071,51.184 C129.0331,51.184 128.4131,50.975 128.0471,50.555 C127.6821,50.136 127.4991,49.679 127.4991,49.183 C127.4991,49.02 127.5741,48.583 127.7221,47.873 L128.3041,45.09 L127.1851,45.09 L127.6451,42.859 L128.7881,42.859 L129.0561,41.586 L132.5441,39.846 L131.9001,42.859 L133.5181,42.859 Z" id="Fill-16" fill="#AD2031" mask="url(#mask-2)"></path>
            <path d="M138.9018,39.7545 L138.4578,41.9005 L135.3378,41.9005 L135.7738,39.7545 L138.9018,39.7545 Z M138.2578,42.8585 L136.5098,50.9925 L133.3748,50.9925 L135.1148,42.8585 L138.2578,42.8585 Z" id="Fill-17" fill="#AD2031" mask="url(#mask-2)"></path>
            <path d="M149.6714,39.7545 L149.2264,41.9005 L146.1064,41.9005 L146.5434,39.7545 L149.6714,39.7545 Z M149.0264,42.8585 L147.2864,50.9925 L144.1444,50.9925 L145.8844,42.8585 L149.0264,42.8585 Z M145.8374,39.9075 L145.3394,41.7625 C144.9004,41.6245 144.5364,41.5555 144.2514,41.5555 C144.0114,41.5555 143.8174,41.6115 143.6684,41.7245 C143.5204,41.8375 143.3904,42.2145 143.2764,42.8585 L144.9414,42.8585 L144.4574,45.0895 L142.8104,45.0895 L141.5524,50.9925 L138.6014,50.9925 L139.8894,45.0895 L138.9004,45.0895 L139.3674,42.8585 L140.3414,42.8585 C140.5254,41.9955 140.6474,41.4575 140.7054,41.2455 C140.7644,41.0325 140.8804,40.7935 141.0544,40.5245 C141.2284,40.2555 141.4954,40.0285 141.8564,39.8415 C142.2154,39.6555 142.6844,39.5625 143.2624,39.5625 C143.9874,39.5625 144.8464,39.6775 145.8374,39.9075 Z" id="Fill-18" fill="#AD2031" mask="url(#mask-2)"></path>
            <path d="M158.8813,45.6881 L156.0613,45.8411 C155.9273,45.1311 155.4493,44.7751 154.6263,44.7751 C153.8643,44.7751 153.2793,45.0841 152.8713,45.6991 C152.4623,46.3151 152.2583,46.9861 152.2583,47.7111 C152.2583,48.1511 152.4033,48.4881 152.6943,48.7231 C152.9863,48.9591 153.3003,49.0761 153.6383,49.0761 C154.4713,49.0761 155.0893,48.6161 155.4923,47.6961 L158.4133,48.0111 C157.6933,50.1261 156.0613,51.1841 153.5153,51.1841 C150.6483,51.1841 149.2143,50.0111 149.2143,47.6661 C149.2143,46.3011 149.6873,45.1281 150.6323,44.1461 C151.5783,43.1661 152.9093,42.6751 154.6263,42.6751 C155.8583,42.6751 156.8423,42.9271 157.5783,43.4301 C158.3143,43.9331 158.7483,44.6861 158.8813,45.6881" id="Fill-19" fill="#AD2031" mask="url(#mask-2)"></path>
        </g>
    </g>
</svg>