<?xml version="1.0" encoding="UTF-8"?>
<svg width="334px" height="436px" viewBox="0 0 334 436" version="1.1" xmlns="http://www.w3.org/2000/svg" xmlns:xlink="http://www.w3.org/1999/xlink">
    <!-- Generator: Sketch 51.3 (57544) - http://www.bohemiancoding.com/sketch -->
    <title>Group 23 Copy 3</title>
    <desc>Created with Sketch.</desc>
    <defs></defs>
    <g id="home" stroke="none" stroke-width="1" fill="none" fill-rule="evenodd">
        <g transform="translate(-1098.000000, -2142.000000)" id="Group-24" stroke="#B8BABB">
            <g transform="translate(7.000000, 1147.000000)">
                <g id="Group-23-Copy-3" transform="translate(1092.000000, 994.000000)">
                    <path d="M287.71991,118.499158 C293.426697,115.198321 293.426697,109.794602 287.71991,106.493765 L109.380671,3.40941241 C103.673884,0.108575776 99,2.80612634 99,9.40779962 L99,215.593741 C99,222.186796 103.673884,224.892965 109.380671,221.592129 L287.71991,118.499158 Z" id="Stroke-3"></path>
                    <path d="M158.400572,348.528183 C163.199809,345.767612 163.199809,341.240961 158.400572,338.48039 L8.71417783,252.182537 C3.92352637,249.413392 0,251.676718 0,257.206433 L0,429.793567 C0,435.323282 3.92352637,437.586608 8.71417783,434.817463 L158.400572,348.528183 Z" id="Stroke-5"></path>
                    <path d="M330.164746,329.079045 C332.611751,327.656253 332.611751,325.33667 330.164746,323.913878 L253.471816,279.608994 C251.007578,278.186202 249,279.341682 249,282.187266 L249,370.81428 C249,373.651241 251.007578,374.815344 253.471816,373.392552 L330.164746,329.079045 Z" id="Stroke-9"></path>
                    <path d="M46.979909,91.8896489 C48.3400303,91.1204888 48.3400303,89.8779994 46.979909,89.1172915 L4.47611827,65.3240418 C3.11599697,64.5633339 2,65.1888048 2,66.7102204 L2,114.288268 C2,115.818136 3.11599697,116.435154 4.47611827,115.674446 L46.979909,91.8896489 Z" id="Stroke-13"></path>
                    <path d="M312.758788,217.034835 C317.080404,214.535609 317.080404,210.45297 312.758788,207.953744 L177.855927,130.066912 C173.534311,127.567686 170,129.613285 170,134.594619 L170,290.39396 C170,295.383853 173.534311,297.429452 177.855927,294.938785 L312.758788,217.034835 Z" id="Stroke-17"></path>
                </g>
            </g>
        </g>
    </g>
</svg>